<svg width="50" height="25" viewBox="0 0 50 25" fill="none" xmlns="http://www.w3.org/2000/svg">
<g filter="url(#filter0_ii_377_472)">
<rect width="50" height="24" rx="12" fill="url(#paint0_linear_377_472)"/>
</g>
<g filter="url(#filter1_d_377_472)">
<path d="M31.8968 8.952C31.8968 8.136 31.6408 6.056 27.6888 6.056H18.3288V17H27.9128C30.9368 17 32.1848 15.768 32.1848 14.04C32.1848 12.792 31.5288 11.848 30.0248 11.416C31.1448 11.064 31.8968 10.328 31.8968 8.952ZM27.9928 12.376C29.4968 12.376 29.9288 13.128 29.9288 13.736C29.9288 14.344 29.4968 14.952 28.1528 14.952H20.5368V12.376H27.9928ZM20.5368 10.424V8.072H27.9928C29.1608 8.072 29.6728 8.568 29.6728 9.272C29.6728 10.024 29.0808 10.424 27.8328 10.424H20.5368Z" fill="url(#paint1_linear_377_472)" shape-rendering="crispEdges"/>
</g>
<defs>
<filter id="filter0_ii_377_472" x="-2" y="-2" width="54" height="28" filterUnits="userSpaceOnUse" color-interpolation-filters="sRGB">
<feFlood flood-opacity="0" result="BackgroundImageFix"/>
<feBlend mode="normal" in="SourceGraphic" in2="BackgroundImageFix" result="shape"/>
<feColorMatrix in="SourceAlpha" type="matrix" values="0 0 0 0 0 0 0 0 0 0 0 0 0 0 0 0 0 0 127 0" result="hardAlpha"/>
<feOffset dx="2" dy="2"/>
<feGaussianBlur stdDeviation="2"/>
<feComposite in2="hardAlpha" operator="arithmetic" k2="-1" k3="1"/>
<feColorMatrix type="matrix" values="0 0 0 0 0 0 0 0 0 0 0 0 0 0 0 0 0 0 0.1 0"/>
<feBlend mode="normal" in2="shape" result="effect1_innerShadow_377_472"/>
<feColorMatrix in="SourceAlpha" type="matrix" values="0 0 0 0 0 0 0 0 0 0 0 0 0 0 0 0 0 0 127 0" result="hardAlpha"/>
<feOffset dx="-2" dy="-2"/>
<feGaussianBlur stdDeviation="2"/>
<feComposite in2="hardAlpha" operator="arithmetic" k2="-1" k3="1"/>
<feColorMatrix type="matrix" values="0 0 0 0 1 0 0 0 0 1 0 0 0 0 1 0 0 0 0.1 0"/>
<feBlend mode="normal" in2="effect1_innerShadow_377_472" result="effect2_innerShadow_377_472"/>
</filter>
<filter id="filter1_d_377_472" x="14.3287" y="6.05603" width="21.856" height="18.944" filterUnits="userSpaceOnUse" color-interpolation-filters="sRGB">
<feFlood flood-opacity="0" result="BackgroundImageFix"/>
<feColorMatrix in="SourceAlpha" type="matrix" values="0 0 0 0 0 0 0 0 0 0 0 0 0 0 0 0 0 0 127 0" result="hardAlpha"/>
<feOffset dy="4"/>
<feGaussianBlur stdDeviation="2"/>
<feComposite in2="hardAlpha" operator="out"/>
<feColorMatrix type="matrix" values="0 0 0 0 0 0 0 0 0 0 0 0 0 0 0 0 0 0 0.25 0"/>
<feBlend mode="normal" in2="BackgroundImageFix" result="effect1_dropShadow_377_472"/>
<feBlend mode="normal" in="SourceGraphic" in2="effect1_dropShadow_377_472" result="shape"/>
</filter>
<linearGradient id="paint0_linear_377_472" x1="25" y1="0" x2="25" y2="24" gradientUnits="userSpaceOnUse">
<stop stop-color="#F9E293"/>
<stop offset="1" stop-color="#FCB03F"/>
</linearGradient>
<linearGradient id="paint1_linear_377_472" x1="5.2" y1="9.25" x2="25.854" y2="31.6889" gradientUnits="userSpaceOnUse">
<stop/>
<stop offset="0.541667" stop-opacity="0.56"/>
<stop offset="1"/>
</linearGradient>
</defs>
</svg>
