<svg width="50" height="25" viewBox="0 0 50 25" fill="none" xmlns="http://www.w3.org/2000/svg">
<g filter="url(#filter0_ii_377_468)">
<rect width="50" height="24" rx="12" fill="url(#paint0_linear_377_468)"/>
</g>
<g filter="url(#filter1_d_377_468)">
<path d="M18.1851 14.952V17H27.7691C30.8571 17 32.0411 15.688 32.0411 13.832C32.0411 11.624 30.3771 10.808 27.8011 10.6L22.7611 10.2C20.9691 10.056 20.5531 9.736 20.5531 9.128C20.5531 8.392 21.1611 8.104 22.2331 8.104H31.3371V6.056H22.4411C20.1851 6.056 18.2331 6.872 18.2331 9.192C18.2331 11.208 19.7051 12.088 22.1691 12.28L27.4651 12.696C29.0331 12.824 29.6891 13.192 29.6891 13.928C29.6891 14.536 29.2571 14.952 27.9131 14.952H18.1851Z" fill="url(#paint1_linear_377_468)"/>
</g>
<defs>
<filter id="filter0_ii_377_468" x="-2" y="-2" width="54" height="28" filterUnits="userSpaceOnUse" color-interpolation-filters="sRGB">
<feFlood flood-opacity="0" result="BackgroundImageFix"/>
<feBlend mode="normal" in="SourceGraphic" in2="BackgroundImageFix" result="shape"/>
<feColorMatrix in="SourceAlpha" type="matrix" values="0 0 0 0 0 0 0 0 0 0 0 0 0 0 0 0 0 0 127 0" result="hardAlpha"/>
<feOffset dx="2" dy="2"/>
<feGaussianBlur stdDeviation="2"/>
<feComposite in2="hardAlpha" operator="arithmetic" k2="-1" k3="1"/>
<feColorMatrix type="matrix" values="0 0 0 0 0 0 0 0 0 0 0 0 0 0 0 0 0 0 0.1 0"/>
<feBlend mode="normal" in2="shape" result="effect1_innerShadow_377_468"/>
<feColorMatrix in="SourceAlpha" type="matrix" values="0 0 0 0 0 0 0 0 0 0 0 0 0 0 0 0 0 0 127 0" result="hardAlpha"/>
<feOffset dx="-2" dy="-2"/>
<feGaussianBlur stdDeviation="2"/>
<feComposite in2="hardAlpha" operator="arithmetic" k2="-1" k3="1"/>
<feColorMatrix type="matrix" values="0 0 0 0 1 0 0 0 0 1 0 0 0 0 1 0 0 0 0.1 0"/>
<feBlend mode="normal" in2="effect1_innerShadow_377_468" result="effect2_innerShadow_377_468"/>
</filter>
<filter id="filter1_d_377_468" x="14.1851" y="6.05603" width="21.856" height="18.944" filterUnits="userSpaceOnUse" color-interpolation-filters="sRGB">
<feFlood flood-opacity="0" result="BackgroundImageFix"/>
<feColorMatrix in="SourceAlpha" type="matrix" values="0 0 0 0 0 0 0 0 0 0 0 0 0 0 0 0 0 0 127 0" result="hardAlpha"/>
<feOffset dy="4"/>
<feGaussianBlur stdDeviation="2"/>
<feComposite in2="hardAlpha" operator="out"/>
<feColorMatrix type="matrix" values="0 0 0 0 0 0 0 0 0 0 0 0 0 0 0 0 0 0 0.25 0"/>
<feBlend mode="normal" in2="BackgroundImageFix" result="effect1_dropShadow_377_468"/>
<feBlend mode="normal" in="SourceGraphic" in2="effect1_dropShadow_377_468" result="shape"/>
</filter>
<linearGradient id="paint0_linear_377_468" x1="25" y1="0" x2="25" y2="24" gradientUnits="userSpaceOnUse">
<stop stop-color="#93D4F9"/>
<stop offset="1" stop-color="#3F74FC"/>
</linearGradient>
<linearGradient id="paint1_linear_377_468" x1="5.2" y1="9.25" x2="25.854" y2="31.6889" gradientUnits="userSpaceOnUse">
<stop stop-color="white"/>
<stop offset="0.541667" stop-color="#C7C7C7"/>
<stop offset="1" stop-color="white"/>
</linearGradient>
</defs>
</svg>
