<svg width="26" height="28" viewBox="0 0 26 28" fill="none" xmlns="http://www.w3.org/2000/svg">
<path d="M6.64453 11.3582C6.31323 10.7843 6.51001 10.0505 7.08374 9.71918L12.2793 6.71958C12.853 6.38828 13.5869 6.58489 13.9182 7.15875C14.2495 7.73262 14.053 8.46646 13.479 8.79776L15.2788 11.915L15.7983 11.6151C16.0852 11.4494 16.4521 11.5477 16.6179 11.8346C16.7834 12.1216 16.6851 12.4885 16.3982 12.6542L13.8005 14.1539L16.5002 18.8298C16.6658 19.1168 16.5674 19.4837 16.2805 19.6494C15.9937 19.815 15.6267 19.7167 15.4612 19.4298L12.7615 14.7539L10.1638 16.2537C9.87671 16.4193 9.51001 16.321 9.34424 16.0341C9.17847 15.7471 9.27686 15.3802 9.56372 15.2146L10.0833 14.9146L8.28369 11.7973C7.70972 12.1287 6.97583 11.932 6.64453 11.3582Z" fill="white"/>
<path fill-rule="evenodd" clip-rule="evenodd" d="M10.5 1.44337C12.0471 0.550207 13.9529 0.550207 15.5 1.44337L22.6243 5.55662C24.1714 6.44979 25.1243 8.10042 25.1243 9.88675V18.1132C25.1243 19.8996 24.1714 21.5502 22.6243 22.4434L15.5 26.5566C13.9529 27.4498 12.0471 27.4498 10.5 26.5566L3.37573 22.4434C1.82861 21.5502 0.875732 19.8996 0.875732 18.1132V9.88675C0.875732 8.10042 1.82861 6.44979 3.37573 5.55662L10.5 1.44337ZM14.5 3.17543L21.6243 7.28867C22.5525 7.82457 23.1243 8.81495 23.1243 9.88675V18.1132C23.1243 19.185 22.5525 20.1754 21.6243 20.7113L14.5 24.8246C13.5718 25.3605 12.4282 25.3605 11.5 24.8246L4.37573 20.7113C3.44751 20.1754 2.87573 19.185 2.87573 18.1132V9.88675C2.87573 8.81495 3.44751 7.82457 4.37573 7.28867L11.5 3.17542C12.4282 2.63952 13.5718 2.63952 14.5 3.17543Z" fill="white"/>
</svg>
