<svg width="22" height="24" viewBox="0 0 22 24" fill="none" xmlns="http://www.w3.org/2000/svg">
<path d="M21.719 14.8839L19.7452 13.6935C19.9444 12.571 19.9444 11.4194 19.7452 10.2968L21.719 9.10646C21.946 8.97098 22.048 8.69034 21.9738 8.42905C21.4595 6.70647 20.5838 5.14841 19.4394 3.85164C19.2633 3.65326 18.9761 3.60487 18.7537 3.74035L16.7799 4.93067C15.9505 4.18551 14.996 3.60971 13.9628 3.23229V0.856494C13.9628 0.585527 13.7821 0.348431 13.5273 0.290367C11.8268 -0.106406 10.0847 -0.0870511 8.46769 0.290367C8.21285 0.348431 8.03215 0.585527 8.03215 0.856494V3.23713C7.00356 3.61939 6.04909 4.19519 5.21509 4.93551L3.24593 3.74519C3.0189 3.60971 2.73626 3.65326 2.5602 3.85648C1.41576 5.14841 0.540066 6.70647 0.0257668 8.43388C-0.0529997 8.69517 0.0535668 8.97582 0.2806 9.1113L2.2544 10.3016C2.05516 11.4242 2.05516 12.5758 2.2544 13.6984L0.2806 14.8887C0.0535668 15.0242 -0.0483664 15.3048 0.0257668 15.5661C0.540066 17.2887 1.41576 18.8467 2.5602 20.1435C2.73626 20.3419 3.02353 20.3903 3.24593 20.2548L5.21973 19.0645C6.04909 19.8096 7.00356 20.3855 8.03679 20.7629V23.1435C8.03679 23.4145 8.21749 23.6516 8.47232 23.7096C10.1728 24.1064 11.9149 24.0871 13.5319 23.7096C13.7867 23.6516 13.9674 23.4145 13.9674 23.1435V20.7629C14.996 20.3806 15.9505 19.8048 16.7845 19.0645L18.7583 20.2548C18.9853 20.3903 19.268 20.3467 19.444 20.1435C20.5885 18.8516 21.4642 17.2935 21.9785 15.5661C22.048 15.3 21.946 15.0193 21.719 14.8839ZM10.9975 15.8661C8.95419 15.8661 7.29082 14.129 7.29082 11.9952C7.29082 9.8613 8.95419 8.12421 10.9975 8.12421C13.0408 8.12421 14.7041 9.8613 14.7041 11.9952C14.7041 14.129 13.0408 15.8661 10.9975 15.8661Z" fill="white"/>
</svg>
