<?xml version="1.0" encoding="UTF-8" standalone="no"?>
<svg
   width="392"
   height="69"
   viewBox="0 0 392 69"
   fill="none"
   version="1.1"
   id="svg4"
   sodipodi:docname="Rectangle 9.svg"
   xml:space="preserve"
   xmlns:inkscape="http://www.inkscape.org/namespaces/inkscape"
   xmlns:sodipodi="http://sodipodi.sourceforge.net/DTD/sodipodi-0.dtd"
   xmlns="http://www.w3.org/2000/svg"
   xmlns:svg="http://www.w3.org/2000/svg"><defs
     id="defs8"><filter
       id="filter0_d_6_170"
       x="0"
       y="0"
       width="69"
       height="69"
       filterUnits="userSpaceOnUse"
       color-interpolation-filters="sRGB"><feFlood
         flood-opacity="0"
         result="BackgroundImageFix"
         id="feFlood130" /><feColorMatrix
         in="SourceAlpha"
         type="matrix"
         values="0 0 0 0 0 0 0 0 0 0 0 0 0 0 0 0 0 0 127 0"
         result="hardAlpha"
         id="feColorMatrix132" /><feOffset
         dy="2"
         id="feOffset134" /><feGaussianBlur
         stdDeviation="2"
         id="feGaussianBlur136" /><feColorMatrix
         type="matrix"
         values="0 0 0 0 0 0 0 0 0 0 0 0 0 0 0 0 0 0 0.18 0"
         id="feColorMatrix138" /><feBlend
         mode="normal"
         in2="BackgroundImageFix"
         result="effect1_dropShadow_6_170"
         id="feBlend140" /><feBlend
         mode="normal"
         in="SourceGraphic"
         in2="effect1_dropShadow_6_170"
         result="shape"
         id="feBlend142" /></filter><filter
       id="filter1_d_6_170"
       x="7.2894902"
       y="23.0133"
       width="19.3785"
       height="23.542801"
       filterUnits="userSpaceOnUse"
       color-interpolation-filters="sRGB"><feFlood
         flood-opacity="0"
         result="BackgroundImageFix"
         id="feFlood145" /><feColorMatrix
         in="SourceAlpha"
         type="matrix"
         values="0 0 0 0 0 0 0 0 0 0 0 0 0 0 0 0 0 0 127 0"
         result="hardAlpha"
         id="feColorMatrix147" /><feOffset
         dy="2"
         id="feOffset149" /><feGaussianBlur
         stdDeviation="2"
         id="feGaussianBlur151" /><feColorMatrix
         type="matrix"
         values="0 0 0 0 0 0 0 0 0 0 0 0 0 0 0 0 0 0 0.18 0"
         id="feColorMatrix153" /><feBlend
         mode="normal"
         in2="BackgroundImageFix"
         result="effect1_dropShadow_6_170"
         id="feBlend155" /><feBlend
         mode="normal"
         in="SourceGraphic"
         in2="effect1_dropShadow_6_170"
         result="shape"
         id="feBlend157" /></filter><filter
       id="filter2_d_6_170"
       x="21.2418"
       y="22.874901"
       width="21.2766"
       height="23.8174"
       filterUnits="userSpaceOnUse"
       color-interpolation-filters="sRGB"><feFlood
         flood-opacity="0"
         result="BackgroundImageFix"
         id="feFlood160" /><feColorMatrix
         in="SourceAlpha"
         type="matrix"
         values="0 0 0 0 0 0 0 0 0 0 0 0 0 0 0 0 0 0 127 0"
         result="hardAlpha"
         id="feColorMatrix162" /><feOffset
         dy="2"
         id="feOffset164" /><feGaussianBlur
         stdDeviation="2"
         id="feGaussianBlur166" /><feColorMatrix
         type="matrix"
         values="0 0 0 0 0 0 0 0 0 0 0 0 0 0 0 0 0 0 0.18 0"
         id="feColorMatrix168" /><feBlend
         mode="normal"
         in2="BackgroundImageFix"
         result="effect1_dropShadow_6_170"
         id="feBlend170" /><feBlend
         mode="normal"
         in="SourceGraphic"
         in2="effect1_dropShadow_6_170"
         result="shape"
         id="feBlend172" /></filter><filter
       id="filter3_d_6_170"
       x="35.583401"
       y="23.012899"
       width="26.9608"
       height="23.5434"
       filterUnits="userSpaceOnUse"
       color-interpolation-filters="sRGB"><feFlood
         flood-opacity="0"
         result="BackgroundImageFix"
         id="feFlood175" /><feColorMatrix
         in="SourceAlpha"
         type="matrix"
         values="0 0 0 0 0 0 0 0 0 0 0 0 0 0 0 0 0 0 127 0"
         result="hardAlpha"
         id="feColorMatrix177" /><feOffset
         dy="2"
         id="feOffset179" /><feGaussianBlur
         stdDeviation="2"
         id="feGaussianBlur181" /><feColorMatrix
         type="matrix"
         values="0 0 0 0 0 0 0 0 0 0 0 0 0 0 0 0 0 0 0.18 0"
         id="feColorMatrix183" /><feBlend
         mode="normal"
         in2="BackgroundImageFix"
         result="effect1_dropShadow_6_170"
         id="feBlend185" /><feBlend
         mode="normal"
         in="SourceGraphic"
         in2="effect1_dropShadow_6_170"
         result="shape"
         id="feBlend187" /></filter></defs><sodipodi:namedview
     id="namedview6"
     pagecolor="#ffffff"
     bordercolor="#000000"
     borderopacity="0.25"
     inkscape:showpageshadow="2"
     inkscape:pageopacity="0.0"
     inkscape:pagecheckerboard="0"
     inkscape:deskcolor="#d1d1d1"
     showgrid="false" /><rect
     width="392"
     height="69"
     fill="#222222"
     id="rect2"
     x="0"
     y="0" /><g
     style="fill:none"
     id="g236"
     transform="translate(0.16446255,0.16446284)"><g
       filter="url(#filter0_d_6_170)"
       id="g116"><path
         d="M 34.5,2 C 28.4677,2 22.5708,3.78879 17.5551,7.14018 12.5394,10.4916 8.63016,15.255 6.32169,20.8282 4.01322,26.4013 3.40921,32.5338 4.58606,38.4502 c 1.17685,5.9165 4.08169,11.351 8.34724,15.6165 4.2655,4.2655 9.7,7.1704 15.6165,8.3472 5.9164,1.1769 12.0489,0.5729 17.622,-1.7356 C 51.745,58.3698 56.5084,54.4606 59.8598,49.4449 63.2112,44.4292 65,38.5323 65,32.5 65,28.4947 64.2111,24.5286 62.6783,20.8282 61.1456,17.1277 58.8989,13.7654 56.0668,10.9332 53.2346,8.10105 49.8723,5.85444 46.1718,4.32167 42.4714,2.78891 38.5053,2 34.5,2 Z m 0,57.95 C 27.2207,59.9473 20.2405,57.0534 15.0947,51.9047 9.94889,46.756 7.05883,39.7742 7.06018,32.4949 7.06153,25.2156 9.95417,18.2349 15.1019,13.0881 20.2496,7.94135 27.2309,5.05 34.5102,5.05 c 7.2793,0 14.2605,2.89135 19.4083,8.0381 5.1477,5.1468 8.0403,12.1275 8.0417,19.4068 0.0013,7.2793 -2.8887,14.2611 -8.0346,19.4098 -5.1458,5.1487 -12.1259,8.0426 -19.4053,8.0453 z"
         fill="#ffffff"
         id="path114" /></g><g
       filter="url(#filter1_d_6_170)"
       id="g120"><path
         d="m 11.2895,25.1414 c 0.5128,-0.0845 1.0317,-0.1274 1.5514,-0.1281 0.5278,0.0014 1.0547,0.0443 1.5759,0.1281 v 5.9983 h 5.126 v -5.9983 c 0.5135,-0.0845 1.033,-0.1274 1.5535,-0.1281 0.5264,0.0013 1.052,0.0441 1.5717,0.1281 V 40.43 c -0.513,0.0828 -1.0318,0.125 -1.5514,0.1261 -0.5272,5e-4 -1.0535,-0.0417 -1.5738,-0.1261 v -6.6103 h -5.126 V 40.43 c -0.5138,0.0826 -1.0332,0.1248 -1.5535,0.1261 -0.5272,6e-4 -1.0535,-0.0416 -1.5738,-0.1261 z"
         fill="#ffffff"
         id="path118" /></g><g
       filter="url(#filter2_d_6_170)"
       id="g124"><path
         d="m 31.8811,40.6903 c -1.0249,0.0253 -2.0425,-0.1782 -2.9788,-0.5958 -0.8101,-0.3755 -1.518,-0.9404 -2.0639,-1.647 -0.559,-0.7441 -0.9672,-1.5902 -1.2017,-2.4908 -0.2711,-1.0235 -0.4037,-2.0787 -0.3944,-3.1375 -0.0089,-1.0681 0.1237,-2.1326 0.3944,-3.1659 0.233,-0.9105 0.6412,-1.7669 1.2017,-2.5213 0.5442,-0.7113 1.2522,-1.2806 2.0639,-1.6592 0.9363,-0.4176 1.9539,-0.6211 2.9788,-0.5958 1.0242,-0.0253 2.0412,0.1783 2.9768,0.5958 0.812,0.3781 1.5202,0.9474 2.0639,1.6592 0.5605,0.7544 0.9687,1.6108 1.2017,2.5213 0.2701,1.0313 0.4028,2.0938 0.3944,3.1598 0.0099,1.0608 -0.1228,2.1181 -0.3944,3.1436 -0.2348,0.8999 -0.643,1.7453 -1.2017,2.4888 -0.5454,0.707 -1.2534,1.272 -2.0639,1.647 -0.9354,0.4182 -1.9524,0.6224 -2.9768,0.5978 z m 0,-2.5946 c 2.196,0 3.2947,-1.7581 3.2961,-5.2744 0,-1.7623 -0.2657,-3.0812 -0.7971,-3.9569 -0.5314,-0.8757 -1.3576,-1.3156 -2.4787,-1.3196 -2.2258,0 -3.3387,1.7622 -3.3387,5.2866 0,3.5245 1.1061,5.2792 3.3184,5.2643 z"
         fill="#ffffff"
         id="path122" /></g><g
       filter="url(#filter3_d_6_170)"
       id="g128"><path
         d="m 39.5834,25.1414 c 0.5763,-0.0904 1.1592,-0.1333 1.7425,-0.1281 0.2562,0 0.5145,0 0.7768,0.0223 0.2615,0.0127 0.5213,0.0481 0.7767,0.1058 l 2.194,11.5066 2.6433,-11.5066 c 0.2847,-0.0427 0.547,-0.0753 0.7869,-0.0956 0.2399,-0.0203 0.49,-0.0325 0.7442,-0.0325 0.4637,0.0034 0.9262,0.0463 1.3827,0.1281 l 2.745,11.8055 2.1899,-11.8055 c 0.4489,-0.0863 0.9051,-0.1292 1.3623,-0.1281 0.2771,-3e-4 0.554,0.0139 0.8296,0.0427 l 0.7869,0.0854 -3.6905,15.2886 c -0.527,0.0861 -1.0602,0.1282 -1.5941,0.1261 -0.5912,-0.0029 -1.1814,-0.045 -1.767,-0.1261 l -2.44,-10.189 -2.6433,10.189 c -0.3416,0.0285 -0.6426,0.0549 -0.9049,0.0854 -0.2864,0.029 -0.5742,0.0425 -0.8621,0.0407 C 44.1652,40.5534 43.6891,40.5112 43.219,40.43 Z"
         fill="#ffffff"
         id="path126" /></g></g><g
     style="fill:none"
     id="g301"
     transform="translate(81.489231,20.990062)"><path
       opacity="0.5"
       d="M 6.63,9.78 C 5.95,9.78 5.345,9.625 4.815,9.315 4.285,8.995 3.865,8.56 3.555,8.01 3.255,7.45 3.105,6.815 3.105,6.105 c 0,-0.71 0.145,-1.34 0.435,-1.89 0.3,-0.56 0.71,-1 1.23,-1.32 0.52,-0.32 1.12,-0.48 1.8,-0.48 1,0 1.835,0.4 2.505,1.2 0.12,0.15 0.165,0.31 0.135,0.48 C 9.18,4.255 9.08,4.4 8.91,4.53 8.78,4.62 8.635,4.65 8.475,4.62 8.315,4.59 8.175,4.51 8.055,4.38 7.655,3.94 7.16,3.72 6.57,3.72 6.15,3.72 5.78,3.82 5.46,4.02 5.14,4.22 4.89,4.5 4.71,4.86 4.54,5.22 4.455,5.635 4.455,6.105 c 0,0.47 0.09,0.885 0.27,1.245 0.19,0.36 0.445,0.64 0.765,0.84 0.33,0.2 0.71,0.3 1.14,0.3 0.55,0 0.995,-0.145 1.335,-0.435 0.14,-0.12 0.29,-0.185 0.45,-0.195 0.16,-0.02 0.3,0.02 0.42,0.12 C 8.995,8.12 9.08,8.275 9.09,8.445 9.11,8.615 9.055,8.765 8.925,8.895 8.315,9.485 7.55,9.78 6.63,9.78 Z M 6.54,12 C 5.73,12 4.97,11.855 4.26,11.565 3.55,11.265 2.925,10.85 2.385,10.32 1.845,9.78 1.425,9.155 1.125,8.445 0.825,7.735 0.675,6.965 0.675,6.135 0.675,5.325 0.825,4.57 1.125,3.87 1.425,3.16 1.84,2.54 2.37,2.01 2.91,1.47 3.535,1.05 4.245,0.749999 4.955,0.44 5.72,0.285 6.54,0.285 c 0.81,0 1.565,0.15 2.265,0.449999 0.71,0.300001 1.33,0.720001 1.86,1.260001 0.54,0.54 0.96,1.165 1.26,1.875 0.31,0.7 0.465,1.455 0.465,2.265 0,0.83 -0.155,1.6 -0.465,2.31 -0.3,0.71 -0.72,1.335 -1.26,1.875 C 10.125,10.85 9.5,11.265 8.79,11.565 8.09,11.855 7.34,12 6.54,12 Z M 6.51,10.77 c 0.65,0 1.255,-0.12 1.815,-0.36 0.56,-0.24 1.05,-0.575 1.47,-1.005 C 10.225,8.975 10.56,8.48 10.8,7.92 11.04,7.36 11.16,6.76 11.16,6.12 11.16,5.48 11.04,4.88 10.8,4.32 10.56,3.76 10.225,3.265 9.795,2.835 9.365,2.405 8.87,2.07 8.31,1.83 7.75,1.59 7.15,1.47 6.51,1.47 5.87,1.47 5.27,1.59 4.71,1.83 4.15,2.07 3.655,2.405 3.225,2.835 2.795,3.265 2.46,3.76 2.22,4.32 1.98,4.88 1.86,5.48 1.86,6.12 c 0,0.64 0.12,1.24 0.36,1.8 0.24,0.56 0.57,1.055 0.99,1.485 0.43,0.43 0.925,0.765 1.485,1.005 0.56,0.24 1.165,0.36 1.815,0.36 z M 19.5652,12 c -0.22,0 -0.405,-0.075 -0.555,-0.225 -0.15,-0.15 -0.225,-0.335 -0.225,-0.555 V 1.065 c 0,-0.23 0.075,-0.415001 0.225,-0.555 0.15,-0.15 0.335,-0.225 0.555,-0.225 h 2.7 c 0.75,0 1.415,0.16 1.995,0.48 0.58,0.31 1.03,0.74 1.35,1.29 0.33,0.55 0.495,1.19 0.495,1.92 0,0.68 -0.165,1.285 -0.495,1.815 -0.32,0.53 -0.77,0.945 -1.35,1.245 -0.58,0.3 -1.245,0.45 -1.995,0.45 h -1.92 v 3.735 c 0,0.22 -0.075,0.405 -0.225,0.555 -0.14,0.15 -0.325,0.225 -0.555,0.225 z m 6.225,0 c -0.14,0 -0.27,-0.03 -0.39,-0.09 -0.11,-0.06 -0.205,-0.155 -0.285,-0.285 l -2.7,-4.35 1.515,-0.435 2.46,3.96 c 0.18,0.29 0.205,0.565 0.075,0.825 -0.13,0.25 -0.355,0.375 -0.675,0.375 z m -5.445,-5.955 h 1.92 c 0.46,0 0.865,-0.085 1.215,-0.255 0.35,-0.18 0.625,-0.425 0.825,-0.735 0.2,-0.32 0.3,-0.68 0.3,-1.08 0,-0.44 -0.1,-0.83 -0.3,-1.17 -0.2,-0.34 -0.475,-0.605 -0.825,-0.795 -0.35,-0.19 -0.755,-0.285 -1.215,-0.285 h -1.92 z M 29.0277,12 c -0.22,0 -0.405,-0.07 -0.555,-0.21 -0.14,-0.15 -0.21,-0.335 -0.21,-0.555 V 4.56 c 0,-0.23 0.07,-0.415 0.21,-0.555 0.15,-0.14 0.335,-0.21 0.555,-0.21 0.23,0 0.415,0.07 0.555,0.21 0.14,0.14 0.21,0.325 0.21,0.555 v 6.675 c 0,0.22 -0.07,0.405 -0.21,0.555 -0.14,0.14 -0.325,0.21 -0.555,0.21 z m 0,-9.54 c -0.27,0 -0.505,-0.095 -0.705,-0.285 -0.19,-0.2 -0.285,-0.435 -0.285,-0.705 0,-0.27 0.095,-0.5 0.285,-0.69 0.2,-0.2 0.435,-0.3 0.705,-0.3 0.27,0 0.5,0.1 0.69,0.3 0.2,0.19 0.3,0.42 0.3,0.69 0,0.27 -0.1,0.505 -0.3,0.705 -0.19,0.19 -0.42,0.285 -0.69,0.285 z m 4.3764,13.05 c -0.22,0 -0.405,-0.075 -0.555,-0.225 -0.14,-0.14 -0.21,-0.32 -0.21,-0.54 v -6.84 c 0.01,-0.79 0.195,-1.5 0.555,-2.13 0.36,-0.63 0.85,-1.125 1.47,-1.485 0.62,-0.37 1.32,-0.555 2.1,-0.555 0.79,0 1.495,0.185 2.115,0.555 0.62,0.36 1.11,0.855 1.47,1.485 0.37,0.63 0.555,1.34 0.555,2.13 0,0.79 -0.17,1.5 -0.51,2.13 -0.33,0.62 -0.785,1.115 -1.365,1.485 -0.58,0.36 -1.235,0.54 -1.965,0.54 -0.59,0 -1.135,-0.12 -1.635,-0.36 -0.49,-0.25 -0.91,-0.585 -1.26,-1.005 v 4.05 c 0,0.22 -0.07,0.4 -0.21,0.54 -0.14,0.15 -0.325,0.225 -0.555,0.225 z m 3.36,-4.8 c 0.51,0 0.965,-0.12 1.365,-0.36 0.4,-0.25 0.715,-0.585 0.945,-1.005 0.24,-0.43 0.36,-0.91 0.36,-1.44 0,-0.54 -0.12,-1.02 -0.36,-1.44 -0.23,-0.43 -0.545,-0.765 -0.945,-1.005 -0.4,-0.25 -0.855,-0.375 -1.365,-0.375 -0.5,0 -0.955,0.125 -1.365,0.375 -0.4,0.24 -0.715,0.575 -0.945,1.005 -0.23,0.42 -0.345,0.9 -0.345,1.44 0,0.53 0.115,1.01 0.345,1.44 0.23,0.42 0.545,0.755 0.945,1.005 0.41,0.24 0.865,0.36 1.365,0.36 z m 7.1868,4.8 c -0.22,0 -0.405,-0.075 -0.555,-0.225 -0.14,-0.14 -0.21,-0.32 -0.21,-0.54 v -6.84 c 0.01,-0.79 0.195,-1.5 0.555,-2.13 0.36,-0.63 0.85,-1.125 1.47,-1.485 0.62,-0.37 1.32,-0.555 2.1,-0.555 0.79,0 1.495,0.185 2.115,0.555 0.62,0.36 1.11,0.855 1.47,1.485 0.37,0.63 0.555,1.34 0.555,2.13 0,0.79 -0.17,1.5 -0.51,2.13 -0.33,0.62 -0.785,1.115 -1.365,1.485 -0.58,0.36 -1.235,0.54 -1.965,0.54 -0.59,0 -1.135,-0.12 -1.635,-0.36 -0.49,-0.25 -0.91,-0.585 -1.26,-1.005 v 4.05 c 0,0.22 -0.07,0.4 -0.21,0.54 -0.14,0.15 -0.325,0.225 -0.555,0.225 z m 3.36,-4.8 c 0.51,0 0.965,-0.12 1.365,-0.36 0.4,-0.25 0.715,-0.585 0.945,-1.005 0.24,-0.43 0.36,-0.91 0.36,-1.44 0,-0.54 -0.12,-1.02 -0.36,-1.44 -0.23,-0.43 -0.545,-0.765 -0.945,-1.005 -0.4,-0.25 -0.855,-0.375 -1.365,-0.375 -0.5,0 -0.955,0.125 -1.365,0.375 -0.4,0.24 -0.715,0.575 -0.945,1.005 -0.23,0.42 -0.345,0.9 -0.345,1.44 0,0.53 0.115,1.01 0.345,1.44 0.23,0.42 0.545,0.755 0.945,1.005 0.41,0.24 0.865,0.36 1.365,0.36 z M 55.6828,12 c -0.44,0 -0.83,-0.12 -1.17,-0.36 -0.34,-0.24 -0.605,-0.565 -0.795,-0.975 -0.19,-0.42 -0.285,-0.9 -0.285,-1.44 v -8.19 c 0,-0.22 0.07,-0.4 0.21,-0.54 0.14,-0.14 0.32,-0.21 0.54,-0.21 0.22,0 0.4,0.07 0.54,0.21 0.14,0.14 0.21,0.32 0.21,0.54 v 8.19 c 0,0.37 0.07,0.675 0.21,0.915 0.14,0.24 0.32,0.36 0.54,0.36 h 0.375 c 0.2,0 0.36,0.07 0.48,0.21 0.13,0.14 0.195,0.32 0.195,0.54 0,0.22 -0.095,0.4 -0.285,0.54 -0.19,0.14 -0.435,0.21 -0.735,0.21 z m 5.948,0.06 c -0.83,0 -1.57,-0.175 -2.22,-0.525 -0.64,-0.36 -1.145,-0.85 -1.515,-1.47 -0.36,-0.63 -0.54,-1.35 -0.54,-2.16 0,-0.82 0.17,-1.54 0.51,-2.16 0.35,-0.63 0.83,-1.12 1.44,-1.47 0.61,-0.36 1.31,-0.54 2.1,-0.54 0.78,0 1.45,0.175 2.01,0.525 0.56,0.34 0.985,0.815 1.275,1.425 0.3,0.6 0.45,1.295 0.45,2.085 0,0.19 -0.065,0.35 -0.195,0.48 -0.13,0.12 -0.295,0.18 -0.495,0.18 h -6.045 v -1.2 h 6 l -0.615,0.42 c -0.01,-0.5 -0.11,-0.945 -0.3,-1.335 -0.19,-0.4 -0.46,-0.715 -0.81,-0.945 -0.35,-0.23 -0.775,-0.345 -1.275,-0.345 -0.57,0 -1.06,0.125 -1.47,0.375 -0.4,0.25 -0.705,0.595 -0.915,1.035 -0.21,0.43 -0.315,0.92 -0.315,1.47 0,0.55 0.125,1.04 0.375,1.47 0.25,0.43 0.595,0.77 1.035,1.02 0.44,0.25 0.945,0.375 1.515,0.375 0.31,0 0.625,-0.055 0.945,-0.165 0.33,-0.12 0.595,-0.255 0.795,-0.405 0.15,-0.11 0.31,-0.165 0.48,-0.165 0.18,-0.01 0.335,0.04 0.465,0.15 0.17,0.15 0.26,0.315 0.27,0.495 0.01,0.18 -0.07,0.335 -0.24,0.465 -0.34,0.27 -0.765,0.49 -1.275,0.66 -0.5,0.17 -0.98,0.255 -1.44,0.255 z m 5.3264,2.535 c -0.12,0 -0.215,-0.04 -0.285,-0.12 -0.06,-0.08 -0.09,-0.17 -0.09,-0.27 0,-0.2 0.055,-0.375 0.165,-0.525 0.12,-0.14 0.235,-0.295 0.345,-0.465 0.12,-0.17 0.18,-0.375 0.18,-0.615 0,-0.17 -0.04,-0.31 -0.12,-0.42 -0.08,-0.11 -0.17,-0.21 -0.27,-0.3 -0.1,-0.1 -0.19,-0.21 -0.27,-0.33 -0.08,-0.12 -0.12,-0.27 -0.12,-0.45 0,-0.27 0.09,-0.495 0.27,-0.675 0.18,-0.18 0.425,-0.27 0.735,-0.27 0.38,0 0.665,0.13 0.855,0.39 0.2,0.26 0.305,0.61 0.315,1.05 0,0.32 -0.055,0.655 -0.165,1.005 -0.1,0.35 -0.24,0.675 -0.42,0.975 -0.17,0.3 -0.355,0.545 -0.555,0.735 -0.2,0.19 -0.39,0.285 -0.57,0.285 z M 78.8835,12.06 c -0.81,0 -1.525,-0.175 -2.145,-0.525 -0.62,-0.36 -1.11,-0.85 -1.47,-1.47 -0.35,-0.63 -0.525,-1.35 -0.525,-2.16 0,-0.82 0.175,-1.54 0.525,-2.16 0.36,-0.63 0.85,-1.12 1.47,-1.47 0.62,-0.36 1.335,-0.54 2.145,-0.54 0.8,0 1.51,0.18 2.13,0.54 0.62,0.35 1.105,0.84 1.455,1.47 0.36,0.62 0.54,1.34 0.54,2.16 0,0.81 -0.175,1.53 -0.525,2.16 -0.35,0.62 -0.835,1.11 -1.455,1.47 -0.62,0.35 -1.335,0.525 -2.145,0.525 z m 0,-1.35 c 0.52,0 0.98,-0.12 1.38,-0.36 0.4,-0.24 0.71,-0.57 0.93,-0.99 0.23,-0.42 0.345,-0.905 0.345,-1.455 0,-0.55 -0.115,-1.035 -0.345,-1.455 -0.22,-0.43 -0.53,-0.765 -0.93,-1.005 -0.4,-0.24 -0.86,-0.36 -1.38,-0.36 -0.52,0 -0.98,0.12 -1.38,0.36 -0.4,0.24 -0.715,0.575 -0.945,1.005 -0.23,0.42 -0.345,0.905 -0.345,1.455 0,0.55 0.115,1.035 0.345,1.455 0.23,0.42 0.545,0.75 0.945,0.99 0.4,0.24 0.86,0.36 1.38,0.36 z m 9.387,1.35 c -0.7,0 -1.35,-0.105 -1.95,-0.315 -0.59,-0.22 -1.05,-0.495 -1.38,-0.825 -0.15,-0.16 -0.215,-0.34 -0.195,-0.54 0.03,-0.21 0.13,-0.38 0.3,-0.51 0.2,-0.16 0.395,-0.225 0.585,-0.195 0.2,0.02 0.37,0.105 0.51,0.255 0.17,0.19 0.44,0.37 0.81,0.54 0.38,0.16 0.8,0.24 1.26,0.24 0.58,0 1.02,-0.095 1.32,-0.285 0.31,-0.19 0.47,-0.435 0.48,-0.735 0.01,-0.3 -0.135,-0.56 -0.435,-0.78 -0.29,-0.22 -0.825,-0.4 -1.605,-0.54 -1.01,-0.2 -1.745,-0.5 -2.205,-0.9 -0.45,-0.4 -0.675,-0.89 -0.675,-1.47 0,-0.51 0.15,-0.93 0.45,-1.26 0.3,-0.34 0.685,-0.59 1.155,-0.75 0.47,-0.17 0.96,-0.255 1.47,-0.255 0.66,0 1.245,0.105 1.755,0.315 0.51,0.21 0.915,0.5 1.215,0.87 0.14,0.16 0.205,0.33 0.195,0.51 -0.01,0.17 -0.095,0.315 -0.255,0.435 -0.16,0.11 -0.35,0.145 -0.57,0.105 -0.22,-0.04 -0.405,-0.13 -0.555,-0.27 -0.25,-0.24 -0.52,-0.405 -0.81,-0.495 -0.29,-0.09 -0.625,-0.135 -1.005,-0.135 -0.44,0 -0.815,0.075 -1.125,0.225 -0.3,0.15 -0.45,0.37 -0.45,0.66 0,0.18 0.045,0.345 0.135,0.495 0.1,0.14 0.29,0.27 0.57,0.39 0.28,0.11 0.69,0.22 1.23,0.33 0.75,0.15 1.34,0.34 1.77,0.57 0.44,0.23 0.755,0.5 0.945,0.81 0.19,0.3 0.285,0.65 0.285,1.05 0,0.46 -0.125,0.875 -0.375,1.245 -0.24,0.37 -0.6,0.665 -1.08,0.885 -0.47,0.22 -1.06,0.33 -1.77,0.33 z m 8.6096,0.015 c -0.69,0 -1.31,-0.145 -1.86,-0.435 -0.54,-0.3 -0.97,-0.735 -1.29,-1.305 -0.31,-0.57 -0.465,-1.27 -0.465,-2.1 v -3.69 c 0,-0.22 0.07,-0.4 0.21,-0.54 0.15,-0.15 0.335,-0.225 0.555,-0.225 0.22,0 0.4,0.075 0.54,0.225 0.15,0.14 0.225,0.32 0.225,0.54 v 3.69 c 0,0.56 0.105,1.025 0.315,1.395 0.21,0.36 0.495,0.63 0.855,0.81 0.36,0.17 0.765,0.255 1.215,0.255 0.43,0 0.81,-0.085 1.14,-0.255 0.34,-0.17 0.61,-0.4 0.81,-0.69 0.2,-0.29 0.3,-0.615 0.3,-0.975 h 0.9449 c 0,0.62 -0.155,1.18 -0.4649,1.68 -0.3,0.5 -0.715,0.895 -1.245,1.185 -0.52,0.29 -1.115,0.435 -1.785,0.435 z M 100.195,12 c -0.2199,0 -0.4049,-0.07 -0.5549,-0.21 -0.14,-0.15 -0.21,-0.335 -0.21,-0.555 v -6.69 c 0,-0.23 0.07,-0.415 0.21,-0.555 0.15,-0.14 0.335,-0.21 0.5549,-0.21 0.23,0 0.415,0.07 0.555,0.21 0.14,0.14 0.21,0.325 0.21,0.555 v 6.69 c 0,0.22 -0.07,0.405 -0.21,0.555 -0.14,0.14 -0.325,0.21 -0.555,0.21 z m 4.39,0 c -0.22,0 -0.405,-0.075 -0.555,-0.225 -0.15,-0.15 -0.225,-0.335 -0.225,-0.555 V 1.065 c 0,-0.23 0.075,-0.415001 0.225,-0.555 0.15,-0.15 0.335,-0.225 0.555,-0.225 0.23,0 0.415,0.075 0.555,0.225 0.15,0.139999 0.225,0.325 0.225,0.555 V 5.37 h 6.96 V 1.065 c 0,-0.23 0.075,-0.415001 0.225,-0.555 0.15,-0.15 0.335,-0.225 0.555,-0.225 0.23,0 0.415,0.075 0.555,0.225 0.14,0.139999 0.21,0.325 0.21,0.555 V 11.22 c 0,0.22 -0.07,0.405 -0.21,0.555 -0.14,0.15 -0.325,0.225 -0.555,0.225 -0.22,0 -0.405,-0.075 -0.555,-0.225 -0.15,-0.15 -0.225,-0.335 -0.225,-0.555 V 6.75 h -6.96 v 4.47 c 0,0.22 -0.075,0.405 -0.225,0.555 C 105,11.925 104.815,12 104.585,12 Z m 17.701,0.15 c -0.88,0 -1.685,-0.145 -2.415,-0.435 -0.73,-0.3 -1.36,-0.715 -1.89,-1.245 -0.52,-0.54 -0.925,-1.175 -1.215,-1.905 -0.29,-0.74 -0.435,-1.55 -0.435,-2.43 0,-0.88 0.145,-1.685 0.435,-2.415 0.29,-0.73 0.695,-1.36 1.215,-1.89 0.53,-0.54 1.16,-0.955001 1.89,-1.245001 C 120.601,0.285 121.406,0.135 122.286,0.135 c 0.88,0 1.68,0.15 2.4,0.449999 0.73,0.29 1.36,0.705001 1.89,1.245001 0.53,0.53 0.94,1.16 1.23,1.89 0.29,0.73 0.435,1.535 0.435,2.415 0,0.88 -0.145,1.69 -0.435,2.43 -0.29,0.73 -0.7,1.365 -1.23,1.905 -0.53,0.53 -1.16,0.945 -1.89,1.245 -0.72,0.29 -1.52,0.435 -2.4,0.435 z m 0,-1.41 c 0.65,0 1.245,-0.115 1.785,-0.345 0.55,-0.24 1.025,-0.565 1.425,-0.975 0.4,-0.42 0.705,-0.91 0.915,-1.47 0.22,-0.56 0.33,-1.165 0.33,-1.815 0,-0.65 -0.11,-1.255 -0.33,-1.815 -0.21,-0.56 -0.515,-1.045 -0.915,-1.455 -0.4,-0.42 -0.875,-0.745 -1.425,-0.975 -0.54,-0.23 -1.135,-0.345 -1.785,-0.345 -0.65,0 -1.25,0.115 -1.8,0.345 -0.54,0.23 -1.01,0.555 -1.41,0.975 -0.39,0.41 -0.695,0.895 -0.915,1.455 -0.22,0.56 -0.33,1.165 -0.33,1.815 0,0.65 0.11,1.255 0.33,1.815 0.22,0.56 0.525,1.05 0.915,1.47 0.4,0.41 0.87,0.735 1.41,0.975 0.55,0.23 1.15,0.345 1.8,0.345 z M 133.028,12 c -0.18,0 -0.34,-0.055 -0.48,-0.165 -0.14,-0.11 -0.24,-0.26 -0.3,-0.45 l -3.015,-10.02 c -0.1,-0.33 -0.095,-0.590001 0.015,-0.780001 0.12,-0.199999 0.31,-0.299999 0.57,-0.299999 0.17,0 0.325,0.05 0.465,0.15 0.14,0.09 0.24,0.235 0.3,0.434999 L 133.208,10.02 h -0.33 l 2.43,-9.060001 c 0.04,-0.15 0.13,-0.275 0.27,-0.375 0.14,-0.099999 0.3,-0.149999 0.48,-0.149999 0.16,0 0.31,0.045 0.45,0.135 0.15,0.08 0.245,0.205 0.285,0.374999 L 139.238,10.02 h -0.3 l 2.64,-9.225001 C 141.678,0.455 141.933,0.285 142.343,0.285 c 0.28,0 0.46,0.11 0.54,0.329999 0.08,0.21 0.08,0.460001 0,0.750001 l -3.015,10.005 c -0.07,0.19 -0.175,0.345 -0.315,0.465 -0.13,0.11 -0.285,0.165 -0.465,0.165 -0.19,0 -0.355,-0.06 -0.495,-0.18 -0.13,-0.12 -0.225,-0.265 -0.285,-0.435 l -2.415,-9.33 h 0.36 l -2.445,9.315 c -0.07,0.19 -0.175,0.345 -0.315,0.465 -0.13,0.11 -0.285,0.165 -0.465,0.165 z m 8.9,2.595 c -0.12,0 -0.215,-0.04 -0.285,-0.12 -0.06,-0.08 -0.09,-0.17 -0.09,-0.27 0,-0.2 0.055,-0.375 0.165,-0.525 0.12,-0.14 0.235,-0.295 0.345,-0.465 0.12,-0.17 0.18,-0.375 0.18,-0.615 0,-0.17 -0.04,-0.31 -0.12,-0.42 -0.08,-0.11 -0.17,-0.21 -0.27,-0.3 -0.1,-0.1 -0.19,-0.21 -0.27,-0.33 -0.08,-0.12 -0.12,-0.27 -0.12,-0.45 0,-0.27 0.09,-0.495 0.27,-0.675 0.18,-0.18 0.425,-0.27 0.735,-0.27 0.38,0 0.665,0.13 0.855,0.39 0.2,0.26 0.305,0.61 0.315,1.05 0,0.32 -0.055,0.655 -0.165,1.005 -0.1,0.35 -0.24,0.675 -0.42,0.975 -0.17,0.3 -0.355,0.545 -0.555,0.735 -0.2,0.19 -0.39,0.285 -0.57,0.285 z M 150.524,12 c -0.22,0 -0.405,-0.075 -0.555,-0.225 -0.14,-0.15 -0.21,-0.33 -0.21,-0.54 0,-0.22 0.07,-0.4 0.21,-0.54 l 4.26,-4.98 c 0.3,-0.35 0.53,-0.68 0.69,-0.99 0.17,-0.31 0.255,-0.605 0.255,-0.885 0,-0.44 -0.075,-0.82 -0.225,-1.14 -0.15,-0.32 -0.365,-0.565 -0.645,-0.735 -0.28,-0.18 -0.615,-0.27 -1.005,-0.27 -0.38,0 -0.725,0.1 -1.035,0.3 -0.3,0.19 -0.54,0.45 -0.72,0.78 -0.17,0.32 -0.255,0.675 -0.255,1.065 0,0.2 -0.075,0.375 -0.225,0.525 -0.14,0.15 -0.32,0.225 -0.54,0.225 -0.21,0 -0.39,-0.075 -0.54,-0.225 -0.15,-0.15 -0.225,-0.325 -0.225,-0.525 0,-0.68 0.155,-1.285 0.465,-1.815 0.31,-0.54 0.73,-0.965 1.26,-1.275001 C 152.024,0.44 152.629,0.285 153.299,0.285 c 0.68,0 1.27,0.145 1.77,0.434999 0.5,0.290001 0.885,0.700001 1.155,1.230001 0.28,0.53 0.42,1.16 0.42,1.89 0,0.32 -0.07,0.645 -0.21,0.975 -0.13,0.33 -0.3,0.645 -0.51,0.945 -0.2,0.3 -0.405,0.57 -0.615,0.81 l -3.435,3.9 h 4.2 c 0.22,0 0.405,0.08 0.555,0.24 0.15,0.15 0.225,0.325 0.225,0.525 0,0.21 -0.075,0.39 -0.225,0.54 -0.15,0.15 -0.335,0.225 -0.555,0.225 z m 11.414,0 c -0.76,0 -1.41,-0.23 -1.95,-0.69 -0.53,-0.47 -0.935,-1.14 -1.215,-2.01 -0.28,-0.88 -0.42,-1.935 -0.42,-3.165 0,-1.23 0.14,-2.28 0.42,-3.15 0.28,-0.88 0.685,-1.55 1.215,-2.01 0.54,-0.470001 1.19,-0.705001 1.95,-0.705001 0.76,0 1.405,0.24 1.935,0.720001 0.54,0.47 0.95,1.145 1.23,2.025 0.28,0.87 0.42,1.91 0.42,3.12 0,1.21 -0.14,2.255 -0.42,3.135 -0.28,0.87 -0.69,1.545 -1.23,2.025 -0.53,0.47 -1.175,0.705 -1.935,0.705 z m 0,-1.56 c 0.46,0 0.84,-0.185 1.14,-0.555 0.3,-0.38 0.525,-0.895 0.675,-1.545 0.15,-0.65 0.225,-1.385 0.225,-2.205 0,-0.82 -0.075,-1.555 -0.225,-2.205 -0.15,-0.65 -0.375,-1.165 -0.675,-1.545 -0.3,-0.38 -0.68,-0.57 -1.14,-0.57 -0.46,0 -0.84,0.19 -1.14,0.57 -0.3,0.37 -0.525,0.88 -0.675,1.53 -0.15,0.65 -0.225,1.39 -0.225,2.22 0,0.83 0.075,1.57 0.225,2.22 0.15,0.65 0.375,1.16 0.675,1.53 0.31,0.37 0.69,0.555 1.14,0.555 z m 7.351,1.56 c -0.2,0 -0.375,-0.075 -0.525,-0.225 -0.15,-0.15 -0.225,-0.33 -0.225,-0.54 v -9.15 l -1.095,0.465 c -0.17,0.07 -0.33,0.105 -0.48,0.105 -0.22,0 -0.405,-0.07 -0.555,-0.21 -0.14,-0.14 -0.21,-0.32 -0.21,-0.54 0,-0.16 0.04,-0.305 0.12,-0.435 0.08,-0.13 0.205,-0.225 0.375,-0.285 l 2.34,-0.84 c 0.05,-0.02 0.1,-0.035001 0.15,-0.045 0.05,-0.01 0.095,-0.015 0.135,-0.015 0.23,0 0.41,0.075 0.54,0.225 0.14,0.139999 0.21,0.325 0.21,0.555 v 10.17 c 0,0.21 -0.075,0.39 -0.225,0.54 -0.15,0.15 -0.335,0.225 -0.555,0.225 z m 7.059,0 c -0.72,0 -1.37,-0.165 -1.95,-0.495 -0.57,-0.34 -1.025,-0.8 -1.365,-1.38 -0.33,-0.58 -0.495,-1.23 -0.495,-1.95 0,-0.22 0.07,-0.4 0.21,-0.54 0.14,-0.15 0.32,-0.225 0.54,-0.225 0.22,0 0.405,0.075 0.555,0.225 0.15,0.14 0.225,0.32 0.225,0.54 0,0.43 0.1,0.82 0.3,1.17 0.2,0.35 0.47,0.625 0.81,0.825 0.35,0.2 0.74,0.3 1.17,0.3 0.44,0 0.83,-0.1 1.17,-0.3 0.35,-0.2 0.625,-0.475 0.825,-0.825 0.2,-0.35 0.3,-0.74 0.3,-1.17 0,-0.44 -0.1,-0.83 -0.3,-1.17 -0.2,-0.35 -0.475,-0.625 -0.825,-0.825 -0.34,-0.2 -0.73,-0.3 -1.17,-0.3 h -2.505 c -0.22,0 -0.4,-0.07 -0.54,-0.21 -0.14,-0.15 -0.21,-0.335 -0.21,-0.555 v -4.05 c 0,-0.220001 0.07,-0.405001 0.21,-0.555 0.14,-0.15 0.32,-0.225 0.54,-0.225 h 5.01 c 0.21,0 0.39,0.08 0.54,0.239999 0.15,0.15 0.225,0.33 0.225,0.540001 0,0.2 -0.075,0.375 -0.225,0.525 -0.14,0.15 -0.32,0.225 -0.54,0.225 h -4.245 V 4.35 h 1.74 c 0.73,0 1.38,0.17 1.95,0.51 0.58,0.33 1.035,0.785 1.365,1.365 0.34,0.57 0.51,1.22 0.51,1.95 0,0.72 -0.17,1.37 -0.51,1.95 -0.33,0.58 -0.785,1.04 -1.365,1.38 -0.57,0.33 -1.22,0.495 -1.95,0.495 z m 5.953,-3.345 c -0.22,0 -0.405,-0.07 -0.555,-0.21 -0.14,-0.14 -0.21,-0.32 -0.21,-0.54 0,-0.23 0.07,-0.415 0.21,-0.555 0.15,-0.14 0.335,-0.21 0.555,-0.21 h 3.345 c 0.22,0 0.4,0.07 0.54,0.21 0.14,0.14 0.21,0.325 0.21,0.555 0,0.22 -0.07,0.4 -0.21,0.54 -0.14,0.14 -0.32,0.21 -0.54,0.21 z M 187.848,12 c -0.22,0 -0.405,-0.075 -0.555,-0.225 -0.14,-0.15 -0.21,-0.33 -0.21,-0.54 0,-0.22 0.07,-0.4 0.21,-0.54 l 4.26,-4.98 c 0.3,-0.35 0.53,-0.68 0.69,-0.99 0.17,-0.31 0.255,-0.605 0.255,-0.885 0,-0.44 -0.075,-0.82 -0.225,-1.14 -0.15,-0.32 -0.365,-0.565 -0.645,-0.735 -0.28,-0.18 -0.615,-0.27 -1.005,-0.27 -0.38,0 -0.725,0.1 -1.035,0.3 -0.3,0.19 -0.54,0.45 -0.72,0.78 -0.17,0.32 -0.255,0.675 -0.255,1.065 0,0.2 -0.075,0.375 -0.225,0.525 -0.14,0.15 -0.32,0.225 -0.54,0.225 -0.21,0 -0.39,-0.075 -0.54,-0.225 -0.15,-0.15 -0.225,-0.325 -0.225,-0.525 0,-0.68 0.155,-1.285 0.465,-1.815 0.31,-0.54 0.73,-0.965 1.26,-1.275001 C 189.348,0.44 189.953,0.285 190.623,0.285 c 0.68,0 1.27,0.145 1.77,0.434999 0.5,0.290001 0.885,0.700001 1.155,1.230001 0.28,0.53 0.42,1.16 0.42,1.89 0,0.32 -0.07,0.645 -0.21,0.975 -0.13,0.33 -0.3,0.645 -0.51,0.945 -0.2,0.3 -0.405,0.57 -0.615,0.81 l -3.435,3.9 h 4.2 c 0.22,0 0.405,0.08 0.555,0.24 0.15,0.15 0.225,0.325 0.225,0.525 0,0.21 -0.075,0.39 -0.225,0.54 -0.15,0.15 -0.335,0.225 -0.555,0.225 z m 11.414,0 c -0.76,0 -1.41,-0.23 -1.95,-0.69 -0.53,-0.47 -0.935,-1.14 -1.215,-2.01 -0.28,-0.88 -0.42,-1.935 -0.42,-3.165 0,-1.23 0.14,-2.28 0.42,-3.15 0.28,-0.88 0.685,-1.55 1.215,-2.01 0.54,-0.470001 1.19,-0.705001 1.95,-0.705001 0.76,0 1.405,0.24 1.935,0.720001 0.54,0.47 0.95,1.145 1.23,2.025 0.28,0.87 0.42,1.91 0.42,3.12 0,1.21 -0.14,2.255 -0.42,3.135 -0.28,0.87 -0.69,1.545 -1.23,2.025 -0.53,0.47 -1.175,0.705 -1.935,0.705 z m 0,-1.56 c 0.46,0 0.84,-0.185 1.14,-0.555 0.3,-0.38 0.525,-0.895 0.675,-1.545 0.15,-0.65 0.225,-1.385 0.225,-2.205 0,-0.82 -0.075,-1.555 -0.225,-2.205 -0.15,-0.65 -0.375,-1.165 -0.675,-1.545 -0.3,-0.38 -0.68,-0.57 -1.14,-0.57 -0.46,0 -0.84,0.19 -1.14,0.57 -0.3,0.37 -0.525,0.88 -0.675,1.53 -0.15,0.65 -0.225,1.39 -0.225,2.22 0,0.83 0.075,1.57 0.225,2.22 0.15,0.65 0.375,1.16 0.675,1.53 0.31,0.37 0.69,0.555 1.14,0.555 z m 6.077,1.56 c -0.22,0 -0.405,-0.075 -0.555,-0.225 -0.14,-0.15 -0.21,-0.33 -0.21,-0.54 0,-0.22 0.07,-0.4 0.21,-0.54 l 4.26,-4.98 c 0.3,-0.35 0.53,-0.68 0.69,-0.99 0.17,-0.31 0.255,-0.605 0.255,-0.885 0,-0.44 -0.075,-0.82 -0.225,-1.14 -0.15,-0.32 -0.365,-0.565 -0.645,-0.735 -0.28,-0.18 -0.615,-0.27 -1.005,-0.27 -0.38,0 -0.725,0.1 -1.035,0.3 -0.3,0.19 -0.54,0.45 -0.72,0.78 -0.17,0.32 -0.255,0.675 -0.255,1.065 0,0.2 -0.075,0.375 -0.225,0.525 -0.14,0.15 -0.32,0.225 -0.54,0.225 -0.21,0 -0.39,-0.075 -0.54,-0.225 -0.15,-0.15 -0.225,-0.325 -0.225,-0.525 0,-0.68 0.155,-1.285 0.465,-1.815 0.31,-0.54 0.73,-0.965 1.26,-1.275001 C 206.839,0.44 207.444,0.285 208.114,0.285 c 0.68,0 1.27,0.145 1.77,0.434999 0.5,0.290001 0.885,0.700001 1.155,1.230001 0.28,0.53 0.42,1.16 0.42,1.89 0,0.32 -0.07,0.645 -0.21,0.975 -0.13,0.33 -0.3,0.645 -0.51,0.945 -0.2,0.3 -0.405,0.57 -0.615,0.81 l -3.435,3.9 h 4.2 c 0.22,0 0.405,0.08 0.555,0.24 0.15,0.15 0.225,0.325 0.225,0.525 0,0.21 -0.075,0.39 -0.225,0.54 -0.15,0.15 -0.335,0.225 -0.555,0.225 z m 8.818,0 c -0.22,0 -0.405,-0.075 -0.555,-0.225 -0.14,-0.15 -0.21,-0.33 -0.21,-0.54 0,-0.22 0.07,-0.4 0.21,-0.54 l 4.26,-4.98 c 0.3,-0.35 0.53,-0.68 0.69,-0.99 0.17,-0.31 0.255,-0.605 0.255,-0.885 0,-0.44 -0.075,-0.82 -0.225,-1.14 -0.15,-0.32 -0.365,-0.565 -0.645,-0.735 -0.28,-0.18 -0.615,-0.27 -1.005,-0.27 -0.38,0 -0.725,0.1 -1.035,0.3 -0.3,0.19 -0.54,0.45 -0.72,0.78 -0.17,0.32 -0.255,0.675 -0.255,1.065 0,0.2 -0.075,0.375 -0.225,0.525 -0.14,0.15 -0.32,0.225 -0.54,0.225 -0.21,0 -0.39,-0.075 -0.54,-0.225 -0.15,-0.15 -0.225,-0.325 -0.225,-0.525 0,-0.68 0.155,-1.285 0.465,-1.815 0.31,-0.54 0.73,-0.965 1.26,-1.275001 C 215.657,0.44 216.262,0.285 216.932,0.285 c 0.68,0 1.27,0.145 1.77,0.434999 0.5,0.290001 0.885,0.700001 1.155,1.230001 0.28,0.53 0.42,1.16 0.42,1.89 0,0.32 -0.07,0.645 -0.21,0.975 -0.13,0.33 -0.3,0.645 -0.51,0.945 -0.2,0.3 -0.405,0.57 -0.615,0.81 l -3.435,3.9 h 4.2 c 0.22,0 0.405,0.08 0.555,0.24 0.15,0.15 0.225,0.325 0.225,0.525 0,0.21 -0.075,0.39 -0.225,0.54 -0.15,0.15 -0.335,0.225 -0.555,0.225 z M 3.31,23 C 3.16333,23 3.04,22.95 2.94,22.85 2.84,22.75 2.79,22.6267 2.79,22.48 v -7.29 h 1.04 v 7.29 c 0,0.1467 -0.05,0.27 -0.15,0.37 C 3.58,22.95 3.45667,23 3.31,23 Z M 0.63,16.15 c -0.14,0 -0.256667,-0.0433 -0.35,-0.13 -0.086667,-0.0933 -0.13,-0.21 -0.13,-0.35 0,-0.14 0.043333,-0.2533 0.13,-0.34 0.093333,-0.0933 0.21,-0.14 0.35,-0.14 h 5.35 c 0.14,0 0.25333,0.0467 0.34,0.14 0.09333,0.0867 0.14,0.2 0.14,0.34 0,0.14 -0.04667,0.2567 -0.14,0.35 -0.08667,0.0867 -0.2,0.13 -0.34,0.13 z m 7.39133,4.86 c -0.14667,0 -0.27,-0.0467 -0.37,-0.14 -0.09334,-0.1 -0.14,-0.2233 -0.14,-0.37 v -4.8 c 0,-0.1533 0.04666,-0.2767 0.14,-0.37 0.1,-0.0933 0.22333,-0.14 0.37,-0.14 0.15333,0 0.27666,0.0467 0.37,0.14 0.09333,0.0933 0.14,0.2167 0.14,0.37 v 4.8 c 0,0.1467 -0.04667,0.27 -0.14,0.37 -0.09334,0.0933 -0.21667,0.14 -0.37,0.14 z m 4.10997,2 c -0.1466,0 -0.27,-0.0467 -0.37,-0.14 -0.0933,-0.1 -0.14,-0.2233 -0.14,-0.37 v -2.46 c 0,-0.38 -0.07,-0.69 -0.21,-0.93 -0.14,-0.24 -0.33,-0.4167 -0.57,-0.53 -0.2333,-0.12 -0.5033,-0.18 -0.81,-0.18 -0.27997,0 -0.53331,0.0567 -0.75997,0.17 -0.22667,0.1133 -0.40667,0.2667 -0.54,0.46 -0.13334,0.1867 -0.2,0.4033 -0.2,0.65 h -0.63 c 0,-0.42 0.1,-0.7933 0.3,-1.12 0.20666,-0.3333 0.48666,-0.5967 0.84,-0.79 0.35333,-0.1933 0.75,-0.29 1.18997,-0.29 0.46,0 0.87,0.1 1.23,0.3 0.3667,0.1933 0.6534,0.48 0.86,0.86 0.2134,0.38 0.32,0.8467 0.32,1.4 v 2.46 c 0,0.1467 -0.05,0.27 -0.15,0.37 -0.0933,0.0933 -0.2133,0.14 -0.36,0.14 z m -4.10997,0 c -0.14667,0 -0.27,-0.0467 -0.37,-0.14 -0.09334,-0.1 -0.14,-0.2233 -0.14,-0.37 v -4.46 c 0,-0.1533 0.04666,-0.2767 0.14,-0.37 0.1,-0.0933 0.22333,-0.14 0.37,-0.14 0.15333,0 0.27666,0.0467 0.37,0.14 0.09333,0.0933 0.14,0.2167 0.14,0.37 v 4.46 c 0,0.1467 -0.04667,0.27 -0.14,0.37 -0.09334,0.0933 -0.21667,0.14 -0.37,0.14 z m 8.59617,0.03 c -0.4867,0 -0.9233,-0.12 -1.31,-0.36 -0.3867,-0.2467 -0.6933,-0.5767 -0.92,-0.99 -0.22,-0.42 -0.33,-0.8933 -0.33,-1.42 0,-0.5267 0.12,-1 0.36,-1.42 0.2467,-0.42 0.5767,-0.75 0.99,-0.99 0.42,-0.2467 0.89,-0.37 1.41,-0.37 0.52,0 0.9867,0.1233 1.4,0.37 0.4133,0.24 0.74,0.57 0.98,0.99 0.2467,0.42 0.37,0.8933 0.37,1.42 h -0.39 c 0,0.5267 -0.1133,1 -0.34,1.42 -0.22,0.4133 -0.5233,0.7433 -0.91,0.99 -0.3867,0.24 -0.8233,0.36 -1.31,0.36 z m 0.2,-0.9 c 0.34,0 0.6433,-0.08 0.91,-0.24 0.2667,-0.1667 0.4767,-0.39 0.63,-0.67 0.1533,-0.2867 0.23,-0.6067 0.23,-0.96 0,-0.36 -0.0767,-0.68 -0.23,-0.96 -0.1533,-0.2867 -0.3633,-0.51 -0.63,-0.67 -0.2667,-0.1667 -0.57,-0.25 -0.91,-0.25 -0.3333,0 -0.6367,0.0833 -0.91,0.25 -0.2667,0.16 -0.48,0.3833 -0.64,0.67 -0.1533,0.28 -0.23,0.6 -0.23,0.96 0,0.3533 0.0767,0.6733 0.23,0.96 0.16,0.28 0.3733,0.5033 0.64,0.67 0.2733,0.16 0.5767,0.24 0.91,0.24 z m 2.24,0.87 c -0.1467,0 -0.27,-0.0467 -0.37,-0.14 -0.0933,-0.1 -0.14,-0.2233 -0.14,-0.37 v -1.53 l 0.19,-1.06 0.83,0.36 v 2.23 c 0,0.1467 -0.05,0.27 -0.15,0.37 -0.0933,0.0933 -0.2133,0.14 -0.36,0.14 z m 6.648,0 c -0.1466,0 -0.27,-0.0467 -0.37,-0.14 -0.0933,-0.1 -0.14,-0.2233 -0.14,-0.37 v -2.46 c 0,-0.38 -0.07,-0.69 -0.21,-0.93 -0.14,-0.24 -0.33,-0.4167 -0.57,-0.53 -0.2333,-0.12 -0.5033,-0.18 -0.81,-0.18 -0.28,0 -0.5333,0.0567 -0.76,0.17 -0.2266,0.1133 -0.4066,0.2667 -0.54,0.46 -0.1333,0.1867 -0.2,0.4033 -0.2,0.65 h -0.63 c 0,-0.42 0.1,-0.7933 0.3,-1.12 0.2067,-0.3333 0.4867,-0.5967 0.84,-0.79 0.3534,-0.1933 0.75,-0.29 1.19,-0.29 0.46,0 0.87,0.1 1.23,0.3 0.3667,0.1933 0.6534,0.48 0.86,0.86 0.2134,0.38 0.32,0.8467 0.32,1.4 v 2.46 c 0,0.1467 -0.05,0.27 -0.15,0.37 -0.0933,0.0933 -0.2133,0.14 -0.36,0.14 z m -4.11,0 c -0.1466,0 -0.27,-0.0467 -0.37,-0.14 -0.0933,-0.1 -0.14,-0.2233 -0.14,-0.37 v -4.46 c 0,-0.1533 0.0467,-0.2767 0.14,-0.37 0.1,-0.0933 0.2234,-0.14 0.37,-0.14 0.1534,0 0.2767,0.0467 0.37,0.14 0.0934,0.0933 0.14,0.2167 0.14,0.37 v 4.46 c 0,0.1467 -0.0466,0.27 -0.14,0.37 -0.0933,0.0933 -0.2166,0.14 -0.37,0.14 z M 28.862,21 l -0.62,-0.68 3.07,-2.74 c 0.1,-0.0933 0.21,-0.1367 0.33,-0.13 0.1266,0.0067 0.2333,0.06 0.32,0.16 0.0933,0.1 0.1366,0.21 0.13,0.33 -0.0067,0.12 -0.06,0.2267 -0.16,0.32 z m -0.47,2 c -0.1467,0 -0.2667,-0.0433 -0.36,-0.13 -0.0867,-0.0933 -0.13,-0.2133 -0.13,-0.36 v -6.83 c 0,-0.1467 0.0433,-0.2633 0.13,-0.35 0.0933,-0.0933 0.2133,-0.14 0.36,-0.14 0.1466,0 0.2633,0.0467 0.35,0.14 0.0933,0.0867 0.14,0.2033 0.14,0.35 v 6.83 c 0,0.1467 -0.0467,0.2667 -0.14,0.36 -0.0867,0.0867 -0.2034,0.13 -0.35,0.13 z m 3.57,-0.05 c -0.1067,0.0867 -0.2267,0.1233 -0.36,0.11 -0.1267,-0.0067 -0.2334,-0.0633 -0.32,-0.17 l -2.03,-2.51 0.7,-0.66 2.08,2.56 c 0.0866,0.1067 0.1233,0.2233 0.11,0.35 -0.0067,0.12 -0.0667,0.2267 -0.18,0.32 z m 3.6233,0.09 c -0.4667,0 -0.9,-0.07 -1.3,-0.21 -0.3933,-0.1467 -0.7,-0.33 -0.92,-0.55 -0.1,-0.1067 -0.1433,-0.2267 -0.13,-0.36 0.02,-0.14 0.0867,-0.2533 0.2,-0.34 0.1333,-0.1067 0.2633,-0.15 0.39,-0.13 0.1333,0.0133 0.2467,0.07 0.34,0.17 0.1133,0.1267 0.2933,0.2467 0.54,0.36 0.2533,0.1067 0.5333,0.16 0.84,0.16 0.3867,0 0.68,-0.0633 0.88,-0.19 0.2067,-0.1267 0.3133,-0.29 0.32,-0.49 0.0067,-0.2 -0.09,-0.3733 -0.29,-0.52 -0.1933,-0.1467 -0.55,-0.2667 -1.07,-0.36 -0.6733,-0.1333 -1.1633,-0.3333 -1.47,-0.6 -0.3,-0.2667 -0.45,-0.5933 -0.45,-0.98 0,-0.34 0.1,-0.62 0.3,-0.84 0.2,-0.2267 0.4567,-0.3933 0.77,-0.5 0.3133,-0.1133 0.64,-0.17 0.98,-0.17 0.44,0 0.83,0.07 1.17,0.21 0.34,0.14 0.61,0.3333 0.81,0.58 0.0933,0.1067 0.1367,0.22 0.13,0.34 -0.0067,0.1133 -0.0633,0.21 -0.17,0.29 -0.1067,0.0733 -0.2333,0.0967 -0.38,0.07 -0.1467,-0.0267 -0.27,-0.0867 -0.37,-0.18 -0.1667,-0.16 -0.3467,-0.27 -0.54,-0.33 -0.1933,-0.06 -0.4167,-0.09 -0.67,-0.09 -0.2933,0 -0.5433,0.05 -0.75,0.15 -0.2,0.1 -0.3,0.2467 -0.3,0.44 0,0.12 0.03,0.23 0.09,0.33 0.0667,0.0933 0.1933,0.18 0.38,0.26 0.1867,0.0733 0.46,0.1467 0.82,0.22 0.5,0.1 0.8933,0.2267 1.18,0.38 0.2933,0.1533 0.5033,0.3333 0.63,0.54 0.1267,0.2 0.19,0.4333 0.19,0.7 0,0.3067 -0.0833,0.5833 -0.25,0.83 -0.16,0.2467 -0.4,0.4433 -0.72,0.59 -0.3133,0.1467 -0.7067,0.22 -1.18,0.22 z M 43.9447,23 c -0.3333,0 -0.6333,-0.0833 -0.9,-0.25 -0.2667,-0.1733 -0.4767,-0.4067 -0.63,-0.7 -0.1533,-0.2933 -0.23,-0.6233 -0.23,-0.99 v -4.77 c 0,-0.1467 0.0467,-0.2667 0.14,-0.36 0.0933,-0.0933 0.2133,-0.14 0.36,-0.14 0.1467,0 0.2667,0.0467 0.36,0.14 0.0933,0.0933 0.14,0.2133 0.14,0.36 v 4.77 c 0,0.2667 0.0733,0.49 0.22,0.67 0.1467,0.18 0.3267,0.27 0.54,0.27 h 0.34 c 0.12,0 0.22,0.0467 0.3,0.14 0.0867,0.0933 0.13,0.2133 0.13,0.36 0,0.1467 -0.0567,0.2667 -0.17,0.36 C 44.438,22.9533 44.298,23 44.1247,23 Z m -2.22,-4.41 c -0.14,0 -0.2533,-0.04 -0.34,-0.12 -0.0867,-0.08 -0.13,-0.18 -0.13,-0.3 0,-0.1333 0.0433,-0.24 0.13,-0.32 0.0867,-0.08 0.2,-0.12 0.34,-0.12 h 2.31 c 0.14,0 0.2533,0.04 0.34,0.12 0.0867,0.08 0.13,0.1867 0.13,0.32 0,0.12 -0.0433,0.22 -0.13,0.3 -0.0867,0.08 -0.2,0.12 -0.34,0.12 z m 6.7237,4.45 c -0.54,0 -1.0167,-0.1167 -1.43,-0.35 -0.4134,-0.24 -0.74,-0.5667 -0.98,-0.98 -0.2334,-0.42 -0.35,-0.9 -0.35,-1.44 0,-0.5467 0.1166,-1.0267 0.35,-1.44 0.24,-0.42 0.5666,-0.7467 0.98,-0.98 0.4133,-0.24 0.89,-0.36 1.43,-0.36 0.5333,0 1.0066,0.12 1.42,0.36 0.4133,0.2333 0.7366,0.56 0.97,0.98 0.24,0.4133 0.36,0.8933 0.36,1.44 0,0.54 -0.1167,1.02 -0.35,1.44 -0.2334,0.4133 -0.5567,0.74 -0.97,0.98 -0.4134,0.2333 -0.89,0.35 -1.43,0.35 z m 0,-0.9 c 0.3466,0 0.6533,-0.08 0.92,-0.24 0.2666,-0.16 0.4733,-0.38 0.62,-0.66 0.1533,-0.28 0.23,-0.6033 0.23,-0.97 0,-0.3667 -0.0767,-0.69 -0.23,-0.97 -0.1467,-0.2867 -0.3534,-0.51 -0.62,-0.67 -0.2667,-0.16 -0.5734,-0.24 -0.92,-0.24 -0.3467,0 -0.6534,0.08 -0.92,0.24 -0.2667,0.16 -0.4767,0.3833 -0.63,0.67 -0.1534,0.28 -0.23,0.6033 -0.23,0.97 0,0.3667 0.0766,0.69 0.23,0.97 0.1533,0.28 0.3633,0.5 0.63,0.66 0.2666,0.16 0.5733,0.24 0.92,0.24 z M 56.2661,23 c -0.1467,0 -0.27,-0.05 -0.37,-0.15 -0.1,-0.1 -0.15,-0.2233 -0.15,-0.37 v -6.77 c 0,-0.1533 0.05,-0.2767 0.15,-0.37 0.1,-0.1 0.2233,-0.15 0.37,-0.15 h 1.8 c 0.5,0 0.9433,0.1067 1.33,0.32 0.3867,0.2067 0.6867,0.4933 0.9,0.86 0.22,0.3667 0.33,0.7933 0.33,1.28 0,0.4533 -0.11,0.8567 -0.33,1.21 -0.2133,0.3533 -0.5133,0.63 -0.9,0.83 -0.3867,0.2 -0.83,0.3 -1.33,0.3 h -1.28 v 2.49 c 0,0.1467 -0.05,0.27 -0.15,0.37 -0.0933,0.1 -0.2167,0.15 -0.37,0.15 z m 4.15,0 c -0.0933,0 -0.18,-0.02 -0.26,-0.06 -0.0733,-0.04 -0.1367,-0.1033 -0.19,-0.19 l -1.8,-2.9 1.01,-0.29 1.64,2.64 c 0.12,0.1933 0.1367,0.3767 0.05,0.55 -0.0867,0.1667 -0.2367,0.25 -0.45,0.25 z m -3.63,-3.97 h 1.28 c 0.3067,0 0.5767,-0.0567 0.81,-0.17 0.2333,-0.12 0.4167,-0.2833 0.55,-0.49 0.1333,-0.2133 0.2,-0.4533 0.2,-0.72 0,-0.2933 -0.0667,-0.5533 -0.2,-0.78 -0.1333,-0.2267 -0.3167,-0.4033 -0.55,-0.53 -0.2333,-0.1267 -0.5033,-0.19 -0.81,-0.19 h -1.28 z m 7.7484,4.01 c -0.5534,0 -1.0467,-0.1167 -1.48,-0.35 -0.4267,-0.24 -0.7634,-0.5667 -1.01,-0.98 -0.24,-0.42 -0.36,-0.9 -0.36,-1.44 0,-0.5467 0.1133,-1.0267 0.34,-1.44 0.2333,-0.42 0.5533,-0.7467 0.96,-0.98 0.4066,-0.24 0.8733,-0.36 1.4,-0.36 0.52,0 0.9666,0.1167 1.34,0.35 0.3733,0.2267 0.6566,0.5433 0.85,0.95 0.2,0.4 0.3,0.8633 0.3,1.39 0,0.1267 -0.0434,0.2333 -0.13,0.32 -0.0867,0.08 -0.1967,0.12 -0.33,0.12 h -4.03 v -0.8 h 4 l -0.41,0.28 c -0.0067,-0.3333 -0.0734,-0.63 -0.2,-0.89 -0.1267,-0.2667 -0.3067,-0.4767 -0.54,-0.63 -0.2334,-0.1533 -0.5167,-0.23 -0.85,-0.23 -0.38,0 -0.7067,0.0833 -0.98,0.25 -0.2667,0.1667 -0.47,0.3967 -0.61,0.69 -0.14,0.2867 -0.21,0.6133 -0.21,0.98 0,0.3667 0.0833,0.6933 0.25,0.98 0.1666,0.2867 0.3966,0.5133 0.69,0.68 0.2933,0.1667 0.63,0.25 1.01,0.25 0.2066,0 0.4166,-0.0367 0.63,-0.11 0.22,-0.08 0.3966,-0.17 0.53,-0.27 0.1,-0.0733 0.2066,-0.11 0.32,-0.11 0.12,-0.0067 0.2233,0.0267 0.31,0.1 0.1133,0.1 0.1733,0.21 0.18,0.33 0.0066,0.12 -0.0467,0.2233 -0.16,0.31 -0.2267,0.18 -0.51,0.3267 -0.85,0.44 -0.3334,0.1133 -0.6534,0.17 -0.96,0.17 z m 5.7256,0 c -0.4867,0 -0.9234,-0.12 -1.31,-0.36 -0.3867,-0.2467 -0.6934,-0.5767 -0.92,-0.99 -0.22,-0.42 -0.33,-0.8933 -0.33,-1.42 0,-0.5267 0.12,-1 0.36,-1.42 0.2466,-0.42 0.5766,-0.75 0.99,-0.99 0.42,-0.2467 0.89,-0.37 1.41,-0.37 0.52,0 0.9866,0.1233 1.4,0.37 0.4133,0.24 0.74,0.57 0.98,0.99 0.2466,0.42 0.37,0.8933 0.37,1.42 h -0.39 c 0,0.5267 -0.1134,1 -0.34,1.42 -0.22,0.4133 -0.5234,0.7433 -0.91,0.99 -0.3867,0.24 -0.8234,0.36 -1.31,0.36 z m 0.2,-0.9 c 0.34,0 0.6433,-0.08 0.91,-0.24 0.2666,-0.1667 0.4766,-0.39 0.63,-0.67 0.1533,-0.2867 0.23,-0.6067 0.23,-0.96 0,-0.36 -0.0767,-0.68 -0.23,-0.96 -0.1534,-0.2867 -0.3634,-0.51 -0.63,-0.67 -0.2667,-0.1667 -0.57,-0.25 -0.91,-0.25 -0.3334,0 -0.6367,0.0833 -0.91,0.25 -0.2667,0.16 -0.48,0.3833 -0.64,0.67 -0.1534,0.28 -0.23,0.6 -0.23,0.96 0,0.3533 0.0766,0.6733 0.23,0.96 0.16,0.28 0.3733,0.5033 0.64,0.67 0.2733,0.16 0.5766,0.24 0.91,0.24 z m 2.24,0.87 c -0.1467,0 -0.27,-0.0467 -0.37,-0.14 -0.0934,-0.1 -0.14,-0.2233 -0.14,-0.37 v -1.53 l 0.19,-1.06 0.83,0.36 v 2.23 c 0,0.1467 -0.05,0.27 -0.15,0.37 -0.0934,0.0933 -0.2134,0.14 -0.36,0.14 z M 76.0281,23 c -0.2933,0 -0.5533,-0.08 -0.78,-0.24 -0.2266,-0.16 -0.4033,-0.3767 -0.53,-0.65 -0.1266,-0.28 -0.19,-0.6 -0.19,-0.96 v -5.46 c 0,-0.1467 0.0467,-0.2667 0.14,-0.36 0.0934,-0.0933 0.2134,-0.14 0.36,-0.14 0.1467,0 0.2667,0.0467 0.36,0.14 0.0934,0.0933 0.14,0.2133 0.14,0.36 v 5.46 c 0,0.2467 0.0467,0.45 0.14,0.61 0.0934,0.16 0.2134,0.24 0.36,0.24 h 0.25 c 0.1334,0 0.24,0.0467 0.32,0.14 0.0867,0.0933 0.13,0.2133 0.13,0.36 0,0.1467 -0.0633,0.2667 -0.19,0.36 -0.1266,0.0933 -0.29,0.14 -0.49,0.14 z m 2.3081,0 c -0.1467,0 -0.27,-0.0467 -0.37,-0.14 -0.0934,-0.1 -0.14,-0.2233 -0.14,-0.37 v -4.45 c 0,-0.1533 0.0466,-0.2767 0.14,-0.37 0.1,-0.0933 0.2233,-0.14 0.37,-0.14 0.1533,0 0.2766,0.0467 0.37,0.14 0.0933,0.0933 0.14,0.2167 0.14,0.37 v 4.45 c 0,0.1467 -0.0467,0.27 -0.14,0.37 -0.0934,0.0933 -0.2167,0.14 -0.37,0.14 z m 0,-6.36 c -0.18,0 -0.3367,-0.0633 -0.47,-0.19 -0.1267,-0.1333 -0.19,-0.29 -0.19,-0.47 0,-0.18 0.0633,-0.3333 0.19,-0.46 0.1333,-0.1333 0.29,-0.2 0.47,-0.2 0.18,0 0.3333,0.0667 0.46,0.2 0.1333,0.1267 0.2,0.28 0.2,0.46 0,0.18 -0.0667,0.3367 -0.2,0.47 -0.1267,0.1267 -0.28,0.19 -0.46,0.19 z m 4.3976,6.4 c -0.4667,0 -0.9,-0.07 -1.3,-0.21 -0.3934,-0.1467 -0.7,-0.33 -0.92,-0.55 -0.1,-0.1067 -0.1434,-0.2267 -0.13,-0.36 0.02,-0.14 0.0866,-0.2533 0.2,-0.34 0.1333,-0.1067 0.2633,-0.15 0.39,-0.13 0.1333,0.0133 0.2466,0.07 0.3399,0.17 0.1134,0.1267 0.2934,0.2467 0.5401,0.36 0.2533,0.1067 0.5333,0.16 0.84,0.16 0.3866,0 0.68,-0.0633 0.88,-0.19 0.2066,-0.1267 0.3133,-0.29 0.32,-0.49 0.0066,-0.2 -0.09,-0.3733 -0.29,-0.52 -0.1934,-0.1467 -0.55,-0.2667 -1.07,-0.36 -0.6734,-0.1333 -1.1634,-0.3333 -1.47,-0.6 -0.3,-0.2667 -0.45,-0.5933 -0.45,-0.98 0,-0.34 0.1,-0.62 0.3,-0.84 0.2,-0.2267 0.4566,-0.3933 0.77,-0.5 0.3133,-0.1133 0.64,-0.17 0.98,-0.17 0.44,0 0.83,0.07 1.17,0.21 0.34,0.14 0.61,0.3333 0.81,0.58 0.0933,0.1067 0.1366,0.22 0.13,0.34 -0.0067,0.1133 -0.0634,0.21 -0.17,0.29 -0.1067,0.0733 -0.2334,0.0967 -0.38,0.07 -0.1467,-0.0267 -0.27,-0.0867 -0.37,-0.18 -0.1667,-0.16 -0.3467,-0.27 -0.54,-0.33 -0.1934,-0.06 -0.4167,-0.09 -0.67,-0.09 -0.2934,0 -0.5434,0.05 -0.75,0.15 -0.2,0.1 -0.3,0.2467 -0.3,0.44 0,0.12 0.03,0.23 0.09,0.33 0.0666,0.0933 0.1933,0.18 0.38,0.26 0.1866,0.0733 0.46,0.1467 0.82,0.22 0.5,0.1 0.8933,0.2267 1.18,0.38 0.2933,0.1533 0.5033,0.3333 0.63,0.54 0.1266,0.2 0.19,0.4333 0.19,0.7 0,0.3067 -0.0834,0.5833 -0.25,0.83 -0.16,0.2467 -0.4,0.4433 -0.72,0.59 -0.3134,0.1467 -0.7067,0.22 -1.18,0.22 z M 88.1634,23 c -0.3333,0 -0.6333,-0.0833 -0.9,-0.25 -0.2666,-0.1733 -0.4766,-0.4067 -0.63,-0.7 -0.1533,-0.2933 -0.23,-0.6233 -0.23,-0.99 v -4.77 c 0,-0.1467 0.0467,-0.2667 0.14,-0.36 0.0934,-0.0933 0.2134,-0.14 0.36,-0.14 0.1467,0 0.2667,0.0467 0.36,0.14 0.0934,0.0933 0.14,0.2133 0.14,0.36 v 4.77 c 0,0.2667 0.0734,0.49 0.22,0.67 0.1467,0.18 0.3267,0.27 0.54,0.27 h 0.34 c 0.12,0 0.22,0.0467 0.3,0.14 0.0867,0.0933 0.13,0.2133 0.13,0.36 0,0.1467 -0.0566,0.2667 -0.17,0.36 -0.1066,0.0933 -0.2466,0.14 -0.42,0.14 z m -2.22,-4.41 c -0.14,0 -0.2533,-0.04 -0.34,-0.12 -0.0866,-0.08 -0.13,-0.18 -0.13,-0.3 0,-0.1333 0.0434,-0.24 0.13,-0.32 0.0867,-0.08 0.2,-0.12 0.34,-0.12 h 2.31 c 0.14,0 0.2534,0.04 0.34,0.12 0.0867,0.08 0.13,0.1867 0.13,0.32 0,0.12 -0.0433,0.22 -0.13,0.3 -0.0866,0.08 -0.2,0.12 -0.34,0.12 z M 90.7971,23 c -0.1467,0 -0.27,-0.0467 -0.37,-0.14 -0.0933,-0.1 -0.14,-0.2233 -0.14,-0.37 v -4.45 c 0,-0.1533 0.0467,-0.2767 0.14,-0.37 0.1,-0.0933 0.2233,-0.14 0.37,-0.14 0.1533,0 0.2767,0.0467 0.37,0.14 0.0933,0.0933 0.14,0.2167 0.14,0.37 v 4.45 c 0,0.1467 -0.0467,0.27 -0.14,0.37 -0.0933,0.0933 -0.2167,0.14 -0.37,0.14 z m 0,-6.36 c -0.18,0 -0.3367,-0.0633 -0.47,-0.19 -0.1267,-0.1333 -0.19,-0.29 -0.19,-0.47 0,-0.18 0.0633,-0.3333 0.19,-0.46 0.1333,-0.1333 0.29,-0.2 0.47,-0.2 0.18,0 0.3333,0.0667 0.46,0.2 0.1333,0.1267 0.2,0.28 0.2,0.46 0,0.18 -0.0667,0.3367 -0.2,0.47 -0.1267,0.1267 -0.28,0.19 -0.46,0.19 z m 3.3676,4.36 -0.62,-0.68 3.07,-2.74 c 0.1,-0.0933 0.21,-0.1367 0.33,-0.13 0.1267,0.0067 0.2333,0.06 0.32,0.16 0.0933,0.1 0.1367,0.21 0.13,0.33 -0.0067,0.12 -0.06,0.2267 -0.16,0.32 z m -0.47,2 c -0.1467,0 -0.2667,-0.0433 -0.36,-0.13 -0.0867,-0.0933 -0.13,-0.2133 -0.13,-0.36 v -6.83 c 0,-0.1467 0.0433,-0.2633 0.13,-0.35 0.0933,-0.0933 0.2133,-0.14 0.36,-0.14 0.1467,0 0.2633,0.0467 0.35,0.14 0.0933,0.0867 0.14,0.2033 0.14,0.35 v 6.83 c 0,0.1467 -0.0467,0.2667 -0.14,0.36 -0.0867,0.0867 -0.2033,0.13 -0.35,0.13 z m 3.57,-0.05 c -0.1067,0.0867 -0.2267,0.1233 -0.36,0.11 -0.1267,-0.0067 -0.2333,-0.0633 -0.32,-0.17 l -2.03,-2.51 0.7,-0.66 2.08,2.56 c 0.0867,0.1067 0.1233,0.2233 0.11,0.35 -0.0067,0.12 -0.0667,0.2267 -0.18,0.32 z m 5.3433,0.15 c -0.587,0 -1.123,-0.0967 -1.61,-0.29 -0.487,-0.2 -0.907,-0.4767 -1.26,-0.83 -0.3466,-0.36 -0.6166,-0.7833 -0.81,-1.27 -0.1933,-0.4933 -0.29,-1.0333 -0.29,-1.62 0,-0.5867 0.0967,-1.1233 0.29,-1.61 0.1934,-0.4867 0.4634,-0.9067 0.81,-1.26 0.353,-0.36 0.773,-0.6367 1.26,-0.83 0.487,-0.2 1.023,-0.3 1.61,-0.3 0.587,0 1.12,0.1 1.6,0.3 0.487,0.1933 0.907,0.47 1.26,0.83 0.353,0.3533 0.627,0.7733 0.82,1.26 0.193,0.4867 0.29,1.0233 0.29,1.61 0,0.5867 -0.097,1.1267 -0.29,1.62 -0.193,0.4867 -0.467,0.91 -0.82,1.27 -0.353,0.3533 -0.773,0.63 -1.26,0.83 -0.48,0.1933 -1.013,0.29 -1.6,0.29 z m 0,-0.94 c 0.433,0 0.83,-0.0767 1.19,-0.23 0.367,-0.16 0.683,-0.3767 0.95,-0.65 0.267,-0.28 0.47,-0.6067 0.61,-0.98 0.147,-0.3733 0.22,-0.7767 0.22,-1.21 0,-0.4333 -0.073,-0.8367 -0.22,-1.21 -0.14,-0.3733 -0.343,-0.6967 -0.61,-0.97 -0.267,-0.28 -0.583,-0.4967 -0.95,-0.65 -0.36,-0.1533 -0.757,-0.23 -1.19,-0.23 -0.433,0 -0.833,0.0767 -1.2,0.23 -0.36,0.1533 -0.673,0.37 -0.94,0.65 -0.26,0.2733 -0.463,0.5967 -0.61,0.97 -0.1466,0.3733 -0.22,0.7767 -0.22,1.21 0,0.4333 0.0734,0.8367 0.22,1.21 0.147,0.3733 0.35,0.7 0.61,0.98 0.267,0.2733 0.58,0.49 0.94,0.65 0.367,0.1533 0.767,0.23 1.2,0.23 z m 7.489,0.88 c -0.467,0 -0.9,-0.07 -1.3,-0.21 -0.393,-0.1467 -0.7,-0.33 -0.92,-0.55 -0.1,-0.1067 -0.143,-0.2267 -0.13,-0.36 0.02,-0.14 0.087,-0.2533 0.2,-0.34 0.133,-0.1067 0.263,-0.15 0.39,-0.13 0.133,0.0133 0.247,0.07 0.34,0.17 0.113,0.1267 0.293,0.2467 0.54,0.36 0.253,0.1067 0.533,0.16 0.84,0.16 0.387,0 0.68,-0.0633 0.88,-0.19 0.207,-0.1267 0.313,-0.29 0.32,-0.49 0.007,-0.2 -0.09,-0.3733 -0.29,-0.52 -0.193,-0.1467 -0.55,-0.2667 -1.07,-0.36 -0.673,-0.1333 -1.163,-0.3333 -1.47,-0.6 -0.3,-0.2667 -0.45,-0.5933 -0.45,-0.98 0,-0.34 0.1,-0.62 0.3,-0.84 0.2,-0.2267 0.457,-0.3933 0.77,-0.5 0.313,-0.1133 0.64,-0.17 0.98,-0.17 0.44,0 0.83,0.07 1.17,0.21 0.34,0.14 0.61,0.3333 0.81,0.58 0.093,0.1067 0.137,0.22 0.13,0.34 -0.007,0.1133 -0.063,0.21 -0.17,0.29 -0.107,0.0733 -0.233,0.0967 -0.38,0.07 -0.147,-0.0267 -0.27,-0.0867 -0.37,-0.18 -0.167,-0.16 -0.347,-0.27 -0.54,-0.33 -0.193,-0.06 -0.417,-0.09 -0.67,-0.09 -0.293,0 -0.543,0.05 -0.75,0.15 -0.2,0.1 -0.3,0.2467 -0.3,0.44 0,0.12 0.03,0.23 0.09,0.33 0.067,0.0933 0.193,0.18 0.38,0.26 0.187,0.0733 0.46,0.1467 0.82,0.22 0.5,0.1 0.893,0.2267 1.18,0.38 0.293,0.1533 0.503,0.3333 0.63,0.54 0.127,0.2 0.19,0.4333 0.19,0.7 0,0.3067 -0.083,0.5833 -0.25,0.83 -0.16,0.2467 -0.4,0.4433 -0.72,0.59 -0.313,0.1467 -0.707,0.22 -1.18,0.22 z m 5.74,0.01 c -0.46,0 -0.874,-0.0967 -1.24,-0.29 -0.36,-0.2 -0.647,-0.49 -0.86,-0.87 -0.207,-0.38 -0.31,-0.8467 -0.31,-1.4 v -2.46 c 0,-0.1467 0.046,-0.2667 0.14,-0.36 0.1,-0.1 0.223,-0.15 0.37,-0.15 0.146,0 0.266,0.05 0.36,0.15 0.1,0.0933 0.15,0.2133 0.15,0.36 v 2.46 c 0,0.3733 0.07,0.6833 0.21,0.93 0.14,0.24 0.33,0.42 0.57,0.54 0.24,0.1133 0.51,0.17 0.81,0.17 0.286,0 0.54,-0.0567 0.76,-0.17 0.226,-0.1133 0.406,-0.2667 0.54,-0.46 0.133,-0.1933 0.2,-0.41 0.2,-0.65 h 0.63 c 0,0.4133 -0.104,0.7867 -0.31,1.12 -0.2,0.3333 -0.477,0.5967 -0.83,0.79 -0.347,0.1933 -0.744,0.29 -1.19,0.29 z m 2.21,-0.05 c -0.147,0 -0.27,-0.0467 -0.37,-0.14 -0.094,-0.1 -0.14,-0.2233 -0.14,-0.37 v -4.46 c 0,-0.1533 0.046,-0.2767 0.14,-0.37 0.1,-0.0933 0.223,-0.14 0.37,-0.14 0.153,0 0.276,0.0467 0.37,0.14 0.093,0.0933 0.14,0.2167 0.14,0.37 v 4.46 c 0,0.1467 -0.047,0.27 -0.14,0.37 -0.094,0.0933 -0.217,0.14 -0.37,0.14 z m 2.596,-1.85 c -0.147,0 -0.27,-0.05 -0.37,-0.15 -0.093,-0.1067 -0.14,-0.2267 -0.14,-0.36 v -4.93 c 0,-0.1467 0.047,-0.27 0.14,-0.37 0.1,-0.1 0.223,-0.15 0.37,-0.15 0.147,0 0.267,0.05 0.36,0.15 0.1,0.1 0.15,0.2233 0.15,0.37 v 4.93 c 0,0.14 -0.053,0.26 -0.16,0.36 -0.1,0.1 -0.217,0.15 -0.35,0.15 z m 0,1.85 c -0.187,0 -0.35,-0.0667 -0.49,-0.2 -0.133,-0.1333 -0.2,-0.2967 -0.2,-0.49 0,-0.1933 0.067,-0.3567 0.2,-0.49 0.14,-0.14 0.303,-0.21 0.49,-0.21 0.193,0 0.357,0.07 0.49,0.21 0.133,0.1333 0.2,0.2967 0.2,0.49 0,0.1933 -0.07,0.3567 -0.21,0.49 -0.133,0.1333 -0.293,0.2 -0.48,0.2 z m 2.501,1.73 c -0.08,0 -0.143,-0.0267 -0.19,-0.08 -0.04,-0.0533 -0.06,-0.1133 -0.06,-0.18 0,-0.1333 0.037,-0.25 0.11,-0.35 0.08,-0.0933 0.157,-0.1967 0.23,-0.31 0.08,-0.1133 0.12,-0.25 0.12,-0.41 0,-0.1133 -0.027,-0.2067 -0.08,-0.28 -0.053,-0.0733 -0.113,-0.14 -0.18,-0.2 -0.067,-0.0667 -0.127,-0.14 -0.18,-0.22 -0.053,-0.08 -0.08,-0.18 -0.08,-0.3 0,-0.18 0.06,-0.33 0.18,-0.45 0.12,-0.12 0.283,-0.18 0.49,-0.18 0.253,0 0.443,0.0867 0.57,0.26 0.133,0.1733 0.203,0.4067 0.21,0.7 0,0.2133 -0.037,0.4367 -0.11,0.67 -0.067,0.2333 -0.16,0.45 -0.28,0.65 -0.113,0.2 -0.237,0.3633 -0.37,0.49 -0.133,0.1267 -0.26,0.19 -0.38,0.19 z m 7.951,-1.69 c -0.54,0 -1.017,-0.1167 -1.43,-0.35 -0.413,-0.24 -0.74,-0.5667 -0.98,-0.98 -0.233,-0.42 -0.35,-0.9 -0.35,-1.44 0,-0.5467 0.117,-1.0267 0.35,-1.44 0.24,-0.42 0.567,-0.7467 0.98,-0.98 0.413,-0.24 0.89,-0.36 1.43,-0.36 0.533,0 1.007,0.12 1.42,0.36 0.413,0.2333 0.737,0.56 0.97,0.98 0.24,0.4133 0.36,0.8933 0.36,1.44 0,0.54 -0.117,1.02 -0.35,1.44 -0.233,0.4133 -0.557,0.74 -0.97,0.98 -0.413,0.2333 -0.89,0.35 -1.43,0.35 z m 0,-0.9 c 0.347,0 0.653,-0.08 0.92,-0.24 0.267,-0.16 0.473,-0.38 0.62,-0.66 0.153,-0.28 0.23,-0.6033 0.23,-0.97 0,-0.3667 -0.077,-0.69 -0.23,-0.97 -0.147,-0.2867 -0.353,-0.51 -0.62,-0.67 -0.267,-0.16 -0.573,-0.24 -0.92,-0.24 -0.347,0 -0.653,0.08 -0.92,0.24 -0.267,0.16 -0.477,0.3833 -0.63,0.67 -0.153,0.28 -0.23,0.6033 -0.23,0.97 0,0.3667 0.077,0.69 0.23,0.97 0.153,0.28 0.363,0.5 0.63,0.66 0.267,0.16 0.573,0.24 0.92,0.24 z m 6.258,0.9 c -0.467,0 -0.9,-0.07 -1.3,-0.21 -0.393,-0.1467 -0.7,-0.33 -0.92,-0.55 -0.1,-0.1067 -0.143,-0.2267 -0.13,-0.36 0.02,-0.14 0.087,-0.2533 0.2,-0.34 0.133,-0.1067 0.263,-0.15 0.39,-0.13 0.133,0.0133 0.247,0.07 0.34,0.17 0.113,0.1267 0.293,0.2467 0.54,0.36 0.253,0.1067 0.533,0.16 0.84,0.16 0.387,0 0.68,-0.0633 0.88,-0.19 0.207,-0.1267 0.313,-0.29 0.32,-0.49 0.007,-0.2 -0.09,-0.3733 -0.29,-0.52 -0.193,-0.1467 -0.55,-0.2667 -1.07,-0.36 -0.673,-0.1333 -1.163,-0.3333 -1.47,-0.6 -0.3,-0.2667 -0.45,-0.5933 -0.45,-0.98 0,-0.34 0.1,-0.62 0.3,-0.84 0.2,-0.2267 0.457,-0.3933 0.77,-0.5 0.313,-0.1133 0.64,-0.17 0.98,-0.17 0.44,0 0.83,0.07 1.17,0.21 0.34,0.14 0.61,0.3333 0.81,0.58 0.093,0.1067 0.137,0.22 0.13,0.34 -0.007,0.1133 -0.063,0.21 -0.17,0.29 -0.107,0.0733 -0.233,0.0967 -0.38,0.07 -0.147,-0.0267 -0.27,-0.0867 -0.37,-0.18 -0.167,-0.16 -0.347,-0.27 -0.54,-0.33 -0.193,-0.06 -0.417,-0.09 -0.67,-0.09 -0.293,0 -0.543,0.05 -0.75,0.15 -0.2,0.1 -0.3,0.2467 -0.3,0.44 0,0.12 0.03,0.23 0.09,0.33 0.067,0.0933 0.193,0.18 0.38,0.26 0.187,0.0733 0.46,0.1467 0.82,0.22 0.5,0.1 0.893,0.2267 1.18,0.38 0.293,0.1533 0.503,0.3333 0.63,0.54 0.127,0.2 0.19,0.4333 0.19,0.7 0,0.3067 -0.083,0.5833 -0.25,0.83 -0.16,0.2467 -0.4,0.4433 -0.72,0.59 -0.313,0.1467 -0.707,0.22 -1.18,0.22 z m 5.74,0.01 c -0.46,0 -0.874,-0.0967 -1.24,-0.29 -0.36,-0.2 -0.647,-0.49 -0.86,-0.87 -0.207,-0.38 -0.31,-0.8467 -0.31,-1.4 v -2.46 c 0,-0.1467 0.046,-0.2667 0.14,-0.36 0.1,-0.1 0.223,-0.15 0.37,-0.15 0.146,0 0.266,0.05 0.36,0.15 0.1,0.0933 0.15,0.2133 0.15,0.36 v 2.46 c 0,0.3733 0.07,0.6833 0.21,0.93 0.14,0.24 0.33,0.42 0.57,0.54 0.24,0.1133 0.51,0.17 0.81,0.17 0.286,0 0.54,-0.0567 0.76,-0.17 0.226,-0.1133 0.406,-0.2667 0.54,-0.46 0.133,-0.1933 0.2,-0.41 0.2,-0.65 h 0.63 c 0,0.4133 -0.104,0.7867 -0.31,1.12 -0.2,0.3333 -0.477,0.5967 -0.83,0.79 -0.347,0.1933 -0.744,0.29 -1.19,0.29 z m 2.21,-0.05 c -0.147,0 -0.27,-0.0467 -0.37,-0.14 -0.094,-0.1 -0.14,-0.2233 -0.14,-0.37 v -4.46 c 0,-0.1533 0.046,-0.2767 0.14,-0.37 0.1,-0.0933 0.223,-0.14 0.37,-0.14 0.153,0 0.276,0.0467 0.37,0.14 0.093,0.0933 0.14,0.2167 0.14,0.37 v 4.46 c 0,0.1467 -0.047,0.27 -0.14,0.37 -0.094,0.0933 -0.217,0.14 -0.37,0.14 z m 2.596,-1.85 c -0.147,0 -0.27,-0.05 -0.37,-0.15 -0.093,-0.1067 -0.14,-0.2267 -0.14,-0.36 v -4.93 c 0,-0.1467 0.047,-0.27 0.14,-0.37 0.1,-0.1 0.223,-0.15 0.37,-0.15 0.147,0 0.267,0.05 0.36,0.15 0.1,0.1 0.15,0.2233 0.15,0.37 v 4.93 c 0,0.14 -0.053,0.26 -0.16,0.36 -0.1,0.1 -0.217,0.15 -0.35,0.15 z m 0,1.85 c -0.187,0 -0.35,-0.0667 -0.49,-0.2 -0.133,-0.1333 -0.2,-0.2967 -0.2,-0.49 0,-0.1933 0.067,-0.3567 0.2,-0.49 0.14,-0.14 0.303,-0.21 0.49,-0.21 0.193,0 0.357,0.07 0.49,0.21 0.133,0.1333 0.2,0.2967 0.2,0.49 0,0.1933 -0.07,0.3567 -0.21,0.49 -0.133,0.1333 -0.293,0.2 -0.48,0.2 z m 4.871,0.04 c -0.487,0 -0.923,-0.12 -1.31,-0.36 -0.387,-0.2467 -0.693,-0.5767 -0.92,-0.99 -0.22,-0.42 -0.33,-0.8933 -0.33,-1.42 0,-0.5267 0.12,-1 0.36,-1.42 0.247,-0.42 0.577,-0.75 0.99,-0.99 0.42,-0.2467 0.89,-0.37 1.41,-0.37 0.52,0 0.987,0.1233 1.4,0.37 0.413,0.24 0.74,0.57 0.98,0.99 0.247,0.42 0.37,0.8933 0.37,1.42 h -0.39 c 0,0.5267 -0.113,1 -0.34,1.42 -0.22,0.4133 -0.523,0.7433 -0.91,0.99 -0.387,0.24 -0.823,0.36 -1.31,0.36 z m 0.2,-0.9 c 0.34,0 0.643,-0.08 0.91,-0.24 0.267,-0.1667 0.477,-0.39 0.63,-0.67 0.153,-0.2867 0.23,-0.6067 0.23,-0.96 0,-0.36 -0.077,-0.68 -0.23,-0.96 -0.153,-0.2867 -0.363,-0.51 -0.63,-0.67 -0.267,-0.1667 -0.57,-0.25 -0.91,-0.25 -0.333,0 -0.637,0.0833 -0.91,0.25 -0.267,0.16 -0.48,0.3833 -0.64,0.67 -0.153,0.28 -0.23,0.6 -0.23,0.96 0,0.3533 0.077,0.6733 0.23,0.96 0.16,0.28 0.373,0.5033 0.64,0.67 0.273,0.16 0.577,0.24 0.91,0.24 z m 2.24,0.87 c -0.147,0 -0.27,-0.0467 -0.37,-0.14 -0.093,-0.1 -0.14,-0.2233 -0.14,-0.37 v -1.53 l 0.19,-1.06 0.83,0.36 v 2.23 c 0,0.1467 -0.05,0.27 -0.15,0.37 -0.093,0.0933 -0.213,0.14 -0.36,0.14 z M 157.848,23 c -0.147,0 -0.27,-0.0467 -0.37,-0.14 -0.093,-0.1 -0.14,-0.2233 -0.14,-0.37 v -4.45 c 0,-0.1533 0.047,-0.2767 0.14,-0.37 0.1,-0.0933 0.223,-0.14 0.37,-0.14 0.153,0 0.277,0.0467 0.37,0.14 0.093,0.0933 0.14,0.2167 0.14,0.37 v 4.45 c 0,0.1467 -0.047,0.27 -0.14,0.37 -0.093,0.0933 -0.217,0.14 -0.37,0.14 z m 0,-6.36 c -0.18,0 -0.337,-0.0633 -0.47,-0.19 -0.127,-0.1333 -0.19,-0.29 -0.19,-0.47 0,-0.18 0.063,-0.3333 0.19,-0.46 0.133,-0.1333 0.29,-0.2 0.47,-0.2 0.18,0 0.333,0.0667 0.46,0.2 0.133,0.1267 0.2,0.28 0.2,0.46 0,0.18 -0.067,0.3367 -0.2,0.47 -0.127,0.1267 -0.28,0.19 -0.46,0.19 z m 7.027,6.37 c -0.146,0 -0.27,-0.0467 -0.37,-0.14 -0.093,-0.1 -0.14,-0.2233 -0.14,-0.37 v -2.46 c 0,-0.38 -0.07,-0.69 -0.21,-0.93 -0.14,-0.24 -0.33,-0.4167 -0.57,-0.53 -0.233,-0.12 -0.503,-0.18 -0.81,-0.18 -0.28,0 -0.533,0.0567 -0.76,0.17 -0.226,0.1133 -0.406,0.2667 -0.54,0.46 -0.133,0.1867 -0.2,0.4033 -0.2,0.65 h -0.63 c 0,-0.42 0.1,-0.7933 0.3,-1.12 0.207,-0.3333 0.487,-0.5967 0.84,-0.79 0.354,-0.1933 0.75,-0.29 1.19,-0.29 0.46,0 0.87,0.1 1.23,0.3 0.367,0.1933 0.654,0.48 0.86,0.86 0.214,0.38 0.32,0.8467 0.32,1.4 v 2.46 c 0,0.1467 -0.05,0.27 -0.15,0.37 -0.093,0.0933 -0.213,0.14 -0.36,0.14 z m -4.11,0 c -0.146,0 -0.27,-0.0467 -0.37,-0.14 -0.093,-0.1 -0.14,-0.2233 -0.14,-0.37 v -4.46 c 0,-0.1533 0.047,-0.2767 0.14,-0.37 0.1,-0.0933 0.224,-0.14 0.37,-0.14 0.154,0 0.277,0.0467 0.37,0.14 0.094,0.0933 0.14,0.2167 0.14,0.37 v 4.46 c 0,0.1467 -0.046,0.27 -0.14,0.37 -0.093,0.0933 -0.216,0.14 -0.37,0.14 z m 8.607,0.04 c -0.46,0 -0.873,-0.0967 -1.24,-0.29 -0.36,-0.2 -0.647,-0.49 -0.86,-0.87 -0.207,-0.38 -0.31,-0.8467 -0.31,-1.4 v -2.46 c 0,-0.1467 0.047,-0.2667 0.14,-0.36 0.1,-0.1 0.223,-0.15 0.37,-0.15 0.147,0 0.267,0.05 0.36,0.15 0.1,0.0933 0.15,0.2133 0.15,0.36 v 2.46 c 0,0.3733 0.07,0.6833 0.21,0.93 0.14,0.24 0.33,0.42 0.57,0.54 0.24,0.1133 0.51,0.17 0.81,0.17 0.287,0 0.54,-0.0567 0.76,-0.17 0.227,-0.1133 0.407,-0.2667 0.54,-0.46 0.133,-0.1933 0.2,-0.41 0.2,-0.65 h 0.63 c 0,0.4133 -0.103,0.7867 -0.31,1.12 -0.2,0.3333 -0.477,0.5967 -0.83,0.79 -0.347,0.1933 -0.743,0.29 -1.19,0.29 z m 2.21,-0.05 c -0.147,0 -0.27,-0.0467 -0.37,-0.14 -0.093,-0.1 -0.14,-0.2233 -0.14,-0.37 v -4.46 c 0,-0.1533 0.047,-0.2767 0.14,-0.37 0.1,-0.0933 0.223,-0.14 0.37,-0.14 0.153,0 0.277,0.0467 0.37,0.14 0.093,0.0933 0.14,0.2167 0.14,0.37 v 4.46 c 0,0.1467 -0.047,0.27 -0.14,0.37 -0.093,0.0933 -0.217,0.14 -0.37,0.14 z m 2.216,1.73 c -0.08,0 -0.143,-0.0267 -0.19,-0.08 -0.04,-0.0533 -0.06,-0.1133 -0.06,-0.18 0,-0.1333 0.037,-0.25 0.11,-0.35 0.08,-0.0933 0.157,-0.1967 0.23,-0.31 0.08,-0.1133 0.12,-0.25 0.12,-0.41 0,-0.1133 -0.026,-0.2067 -0.08,-0.28 -0.053,-0.0733 -0.113,-0.14 -0.18,-0.2 -0.066,-0.0667 -0.126,-0.14 -0.18,-0.22 -0.053,-0.08 -0.08,-0.18 -0.08,-0.3 0,-0.18 0.06,-0.33 0.18,-0.45 0.12,-0.12 0.284,-0.18 0.49,-0.18 0.254,0 0.444,0.0867 0.57,0.26 0.134,0.1733 0.204,0.4067 0.21,0.7 0,0.2133 -0.036,0.4367 -0.11,0.67 -0.066,0.2333 -0.16,0.45 -0.28,0.65 -0.113,0.2 -0.236,0.3633 -0.37,0.49 -0.133,0.1267 -0.26,0.19 -0.38,0.19 z m 7.951,-1.69 c -0.54,0 -1.017,-0.1167 -1.43,-0.35 -0.413,-0.24 -0.74,-0.5667 -0.98,-0.98 -0.233,-0.42 -0.35,-0.9 -0.35,-1.44 0,-0.5467 0.117,-1.0267 0.35,-1.44 0.24,-0.42 0.567,-0.7467 0.98,-0.98 0.413,-0.24 0.89,-0.36 1.43,-0.36 0.533,0 1.007,0.12 1.42,0.36 0.413,0.2333 0.737,0.56 0.97,0.98 0.24,0.4133 0.36,0.8933 0.36,1.44 0,0.54 -0.117,1.02 -0.35,1.44 -0.233,0.4133 -0.557,0.74 -0.97,0.98 -0.413,0.2333 -0.89,0.35 -1.43,0.35 z m 0,-0.9 c 0.347,0 0.653,-0.08 0.92,-0.24 0.267,-0.16 0.473,-0.38 0.62,-0.66 0.153,-0.28 0.23,-0.6033 0.23,-0.97 0,-0.3667 -0.077,-0.69 -0.23,-0.97 -0.147,-0.2867 -0.353,-0.51 -0.62,-0.67 -0.267,-0.16 -0.573,-0.24 -0.92,-0.24 -0.347,0 -0.653,0.08 -0.92,0.24 -0.267,0.16 -0.477,0.3833 -0.63,0.67 -0.153,0.28 -0.23,0.6033 -0.23,0.97 0,0.3667 0.077,0.69 0.23,0.97 0.153,0.28 0.363,0.5 0.63,0.66 0.267,0.16 0.573,0.24 0.92,0.24 z m 6.258,0.9 c -0.466,0 -0.9,-0.07 -1.3,-0.21 -0.393,-0.1467 -0.7,-0.33 -0.92,-0.55 -0.1,-0.1067 -0.143,-0.2267 -0.13,-0.36 0.02,-0.14 0.087,-0.2533 0.2,-0.34 0.134,-0.1067 0.264,-0.15 0.39,-0.13 0.134,0.0133 0.247,0.07 0.34,0.17 0.114,0.1267 0.294,0.2467 0.54,0.36 0.254,0.1067 0.534,0.16 0.84,0.16 0.387,0 0.68,-0.0633 0.88,-0.19 0.207,-0.1267 0.314,-0.29 0.32,-0.49 0.007,-0.2 -0.09,-0.3733 -0.29,-0.52 -0.193,-0.1467 -0.55,-0.2667 -1.07,-0.36 -0.673,-0.1333 -1.163,-0.3333 -1.47,-0.6 -0.3,-0.2667 -0.45,-0.5933 -0.45,-0.98 0,-0.34 0.1,-0.62 0.3,-0.84 0.2,-0.2267 0.457,-0.3933 0.77,-0.5 0.314,-0.1133 0.64,-0.17 0.98,-0.17 0.44,0 0.83,0.07 1.17,0.21 0.34,0.14 0.61,0.3333 0.81,0.58 0.094,0.1067 0.137,0.22 0.13,0.34 -0.006,0.1133 -0.063,0.21 -0.17,0.29 -0.106,0.0733 -0.233,0.0967 -0.38,0.07 -0.146,-0.0267 -0.27,-0.0867 -0.37,-0.18 -0.166,-0.16 -0.346,-0.27 -0.54,-0.33 -0.193,-0.06 -0.416,-0.09 -0.67,-0.09 -0.293,0 -0.543,0.05 -0.75,0.15 -0.2,0.1 -0.3,0.2467 -0.3,0.44 0,0.12 0.03,0.23 0.09,0.33 0.067,0.0933 0.194,0.18 0.38,0.26 0.187,0.0733 0.46,0.1467 0.82,0.22 0.5,0.1 0.894,0.2267 1.18,0.38 0.294,0.1533 0.504,0.3333 0.63,0.54 0.127,0.2 0.19,0.4333 0.19,0.7 0,0.3067 -0.083,0.5833 -0.25,0.83 -0.16,0.2467 -0.4,0.4433 -0.72,0.59 -0.313,0.1467 -0.706,0.22 -1.18,0.22 z m 5.74,0.01 c -0.46,0 -0.873,-0.0967 -1.24,-0.29 -0.36,-0.2 -0.647,-0.49 -0.86,-0.87 -0.207,-0.38 -0.31,-0.8467 -0.31,-1.4 v -2.46 c 0,-0.1467 0.047,-0.2667 0.14,-0.36 0.1,-0.1 0.223,-0.15 0.37,-0.15 0.147,0 0.267,0.05 0.36,0.15 0.1,0.0933 0.15,0.2133 0.15,0.36 v 2.46 c 0,0.3733 0.07,0.6833 0.21,0.93 0.14,0.24 0.33,0.42 0.57,0.54 0.24,0.1133 0.51,0.17 0.81,0.17 0.287,0 0.54,-0.0567 0.76,-0.17 0.227,-0.1133 0.407,-0.2667 0.54,-0.46 0.133,-0.1933 0.2,-0.41 0.2,-0.65 h 0.63 c 0,0.4133 -0.103,0.7867 -0.31,1.12 -0.2,0.3333 -0.477,0.5967 -0.83,0.79 -0.347,0.1933 -0.743,0.29 -1.19,0.29 z m 2.21,-0.05 c -0.147,0 -0.27,-0.0467 -0.37,-0.14 -0.093,-0.1 -0.14,-0.2233 -0.14,-0.37 v -4.46 c 0,-0.1533 0.047,-0.2767 0.14,-0.37 0.1,-0.0933 0.223,-0.14 0.37,-0.14 0.153,0 0.277,0.0467 0.37,0.14 0.093,0.0933 0.14,0.2167 0.14,0.37 v 4.46 c 0,0.1467 -0.047,0.27 -0.14,0.37 -0.093,0.0933 -0.217,0.14 -0.37,0.14 z m 2.596,-1.85 c -0.146,0 -0.27,-0.05 -0.37,-0.15 -0.093,-0.1067 -0.14,-0.2267 -0.14,-0.36 v -4.93 c 0,-0.1467 0.047,-0.27 0.14,-0.37 0.1,-0.1 0.224,-0.15 0.37,-0.15 0.147,0 0.267,0.05 0.36,0.15 0.1,0.1 0.15,0.2233 0.15,0.37 v 4.93 c 0,0.14 -0.053,0.26 -0.16,0.36 -0.1,0.1 -0.216,0.15 -0.35,0.15 z m 0,1.85 c -0.186,0 -0.35,-0.0667 -0.49,-0.2 -0.133,-0.1333 -0.2,-0.2967 -0.2,-0.49 0,-0.1933 0.067,-0.3567 0.2,-0.49 0.14,-0.14 0.304,-0.21 0.49,-0.21 0.194,0 0.357,0.07 0.49,0.21 0.134,0.1333 0.2,0.2967 0.2,0.49 0,0.1933 -0.07,0.3567 -0.21,0.49 -0.133,0.1333 -0.293,0.2 -0.48,0.2 z m 2.381,0 c -0.187,0 -0.33,-0.08 -0.43,-0.24 -0.1,-0.16 -0.11,-0.33 -0.03,-0.51 l 2.81,-6.71 c 0.1,-0.2333 0.263,-0.35 0.49,-0.35 0.24,0 0.403,0.1167 0.49,0.35 l 2.82,6.73 c 0.073,0.1867 0.06,0.3567 -0.04,0.51 -0.093,0.1467 -0.237,0.22 -0.43,0.22 -0.1,0 -0.197,-0.0267 -0.29,-0.08 -0.087,-0.06 -0.15,-0.14 -0.19,-0.24 l -2.48,-6.16 h 0.28 l -2.52,6.16 c -0.047,0.1067 -0.117,0.1867 -0.21,0.24 -0.087,0.0533 -0.177,0.08 -0.27,0.08 z m 0.53,-1.72 0.4,-0.86 h 3.92 l 0.4,0.86 z m 7.671,-0.28 -0.62,-0.68 3.07,-2.74 c 0.1,-0.0933 0.21,-0.1367 0.33,-0.13 0.127,0.0067 0.234,0.06 0.32,0.16 0.094,0.1 0.137,0.21 0.13,0.33 -0.006,0.12 -0.06,0.2267 -0.16,0.32 z m -0.47,2 c -0.146,0 -0.266,-0.0433 -0.36,-0.13 -0.086,-0.0933 -0.13,-0.2133 -0.13,-0.36 v -6.83 c 0,-0.1467 0.044,-0.2633 0.13,-0.35 0.094,-0.0933 0.214,-0.14 0.36,-0.14 0.147,0 0.264,0.0467 0.35,0.14 0.094,0.0867 0.14,0.2033 0.14,0.35 v 6.83 c 0,0.1467 -0.046,0.2667 -0.14,0.36 -0.086,0.0867 -0.203,0.13 -0.35,0.13 z m 3.57,-0.05 c -0.106,0.0867 -0.226,0.1233 -0.36,0.11 -0.126,-0.0067 -0.233,-0.0633 -0.32,-0.17 l -2.03,-2.51 0.7,-0.66 2.08,2.56 c 0.087,0.1067 0.124,0.2233 0.11,0.35 -0.006,0.12 -0.066,0.2267 -0.18,0.32 z m 3.416,0.09 c -0.487,0 -0.924,-0.12 -1.31,-0.36 -0.387,-0.2467 -0.694,-0.5767 -0.92,-0.99 -0.22,-0.42 -0.33,-0.8933 -0.33,-1.42 0,-0.5267 0.12,-1 0.36,-1.42 0.246,-0.42 0.576,-0.75 0.99,-0.99 0.42,-0.2467 0.89,-0.37 1.41,-0.37 0.52,0 0.986,0.1233 1.4,0.37 0.413,0.24 0.74,0.57 0.98,0.99 0.246,0.42 0.37,0.8933 0.37,1.42 h -0.39 c 0,0.5267 -0.114,1 -0.34,1.42 -0.22,0.4133 -0.524,0.7433 -0.91,0.99 -0.387,0.24 -0.824,0.36 -1.31,0.36 z m 0.2,-0.9 c 0.34,0 0.643,-0.08 0.91,-0.24 0.266,-0.1667 0.476,-0.39 0.63,-0.67 0.153,-0.2867 0.23,-0.6067 0.23,-0.96 0,-0.36 -0.077,-0.68 -0.23,-0.96 -0.154,-0.2867 -0.364,-0.51 -0.63,-0.67 -0.267,-0.1667 -0.57,-0.25 -0.91,-0.25 -0.334,0 -0.637,0.0833 -0.91,0.25 -0.267,0.16 -0.48,0.3833 -0.64,0.67 -0.154,0.28 -0.23,0.6 -0.23,0.96 0,0.3533 0.076,0.6733 0.23,0.96 0.16,0.28 0.373,0.5033 0.64,0.67 0.273,0.16 0.576,0.24 0.91,0.24 z m 2.24,0.87 c -0.147,0 -0.27,-0.0467 -0.37,-0.14 -0.094,-0.1 -0.14,-0.2233 -0.14,-0.37 v -1.53 l 0.19,-1.06 0.83,0.36 v 2.23 c 0,0.1467 -0.05,0.27 -0.15,0.37 -0.094,0.0933 -0.214,0.14 -0.36,0.14 z M 222.109,23 c -0.334,0 -0.634,-0.0833 -0.9,-0.25 -0.267,-0.1733 -0.477,-0.4067 -0.63,-0.7 -0.154,-0.2933 -0.23,-0.6233 -0.23,-0.99 v -4.77 c 0,-0.1467 0.046,-0.2667 0.14,-0.36 0.093,-0.0933 0.213,-0.14 0.36,-0.14 0.146,0 0.266,0.0467 0.36,0.14 0.093,0.0933 0.14,0.2133 0.14,0.36 v 4.77 c 0,0.2667 0.073,0.49 0.22,0.67 0.146,0.18 0.326,0.27 0.54,0.27 h 0.34 c 0.12,0 0.22,0.0467 0.3,0.14 0.086,0.0933 0.13,0.2133 0.13,0.36 0,0.1467 -0.057,0.2667 -0.17,0.36 -0.107,0.0933 -0.247,0.14 -0.42,0.14 z m -2.22,-4.41 c -0.14,0 -0.254,-0.04 -0.34,-0.12 -0.087,-0.08 -0.13,-0.18 -0.13,-0.3 0,-0.1333 0.043,-0.24 0.13,-0.32 0.086,-0.08 0.2,-0.12 0.34,-0.12 h 2.31 c 0.14,0 0.253,0.04 0.34,0.12 0.086,0.08 0.13,0.1867 0.13,0.32 0,0.12 -0.044,0.22 -0.13,0.3 -0.087,0.08 -0.2,0.12 -0.34,0.12 z m 6.233,4.45 c -0.466,0 -0.9,-0.07 -1.3,-0.21 -0.393,-0.1467 -0.7,-0.33 -0.92,-0.55 -0.1,-0.1067 -0.143,-0.2267 -0.13,-0.36 0.02,-0.14 0.087,-0.2533 0.2,-0.34 0.134,-0.1067 0.264,-0.15 0.39,-0.13 0.134,0.0133 0.247,0.07 0.34,0.17 0.114,0.1267 0.294,0.2467 0.54,0.36 0.254,0.1067 0.534,0.16 0.84,0.16 0.387,0 0.68,-0.0633 0.88,-0.19 0.207,-0.1267 0.314,-0.29 0.32,-0.49 0.007,-0.2 -0.09,-0.3733 -0.29,-0.52 -0.193,-0.1467 -0.55,-0.2667 -1.07,-0.36 -0.673,-0.1333 -1.163,-0.3333 -1.47,-0.6 -0.3,-0.2667 -0.45,-0.5933 -0.45,-0.98 0,-0.34 0.1,-0.62 0.3,-0.84 0.2,-0.2267 0.457,-0.3933 0.77,-0.5 0.314,-0.1133 0.64,-0.17 0.98,-0.17 0.44,0 0.83,0.07 1.17,0.21 0.34,0.14 0.61,0.3333 0.81,0.58 0.094,0.1067 0.137,0.22 0.13,0.34 -0.006,0.1133 -0.063,0.21 -0.17,0.29 -0.106,0.0733 -0.233,0.0967 -0.38,0.07 -0.146,-0.0267 -0.27,-0.0867 -0.37,-0.18 -0.166,-0.16 -0.346,-0.27 -0.54,-0.33 -0.193,-0.06 -0.416,-0.09 -0.67,-0.09 -0.293,0 -0.543,0.05 -0.75,0.15 -0.2,0.1 -0.3,0.2467 -0.3,0.44 0,0.12 0.03,0.23 0.09,0.33 0.067,0.0933 0.194,0.18 0.38,0.26 0.187,0.0733 0.46,0.1467 0.82,0.22 0.5,0.1 0.894,0.2267 1.18,0.38 0.294,0.1533 0.504,0.3333 0.63,0.54 0.127,0.2 0.19,0.4333 0.19,0.7 0,0.3067 -0.083,0.5833 -0.25,0.83 -0.16,0.2467 -0.4,0.4433 -0.72,0.59 -0.313,0.1467 -0.706,0.22 -1.18,0.22 z m 5.74,0.01 c -0.46,0 -0.873,-0.0967 -1.24,-0.29 -0.36,-0.2 -0.647,-0.49 -0.86,-0.87 -0.207,-0.38 -0.31,-0.8467 -0.31,-1.4 v -2.46 c 0,-0.1467 0.047,-0.2667 0.14,-0.36 0.1,-0.1 0.223,-0.15 0.37,-0.15 0.147,0 0.267,0.05 0.36,0.15 0.1,0.0933 0.15,0.2133 0.15,0.36 v 2.46 c 0,0.3733 0.07,0.6833 0.21,0.93 0.14,0.24 0.33,0.42 0.57,0.54 0.24,0.1133 0.51,0.17 0.81,0.17 0.287,0 0.54,-0.0567 0.76,-0.17 0.227,-0.1133 0.407,-0.2667 0.54,-0.46 0.133,-0.1933 0.2,-0.41 0.2,-0.65 h 0.63 c 0,0.4133 -0.103,0.7867 -0.31,1.12 -0.2,0.3333 -0.477,0.5967 -0.83,0.79 -0.347,0.1933 -0.743,0.29 -1.19,0.29 z m 2.21,-0.05 c -0.147,0 -0.27,-0.0467 -0.37,-0.14 -0.093,-0.1 -0.14,-0.2233 -0.14,-0.37 v -4.46 c 0,-0.1533 0.047,-0.2767 0.14,-0.37 0.1,-0.0933 0.223,-0.14 0.37,-0.14 0.153,0 0.277,0.0467 0.37,0.14 0.093,0.0933 0.14,0.2167 0.14,0.37 v 4.46 c 0,0.1467 -0.047,0.27 -0.14,0.37 -0.093,0.0933 -0.217,0.14 -0.37,0.14 z m 3.267,-2 -0.62,-0.68 3.07,-2.74 c 0.1,-0.0933 0.21,-0.1367 0.33,-0.13 0.126,0.0067 0.233,0.06 0.32,0.16 0.093,0.1 0.136,0.21 0.13,0.33 -0.007,0.12 -0.06,0.2267 -0.16,0.32 z m -0.47,2 c -0.147,0 -0.267,-0.0433 -0.36,-0.13 -0.087,-0.0933 -0.13,-0.2133 -0.13,-0.36 v -6.83 c 0,-0.1467 0.043,-0.2633 0.13,-0.35 0.093,-0.0933 0.213,-0.14 0.36,-0.14 0.146,0 0.263,0.0467 0.35,0.14 0.093,0.0867 0.14,0.2033 0.14,0.35 v 6.83 c 0,0.1467 -0.047,0.2667 -0.14,0.36 -0.087,0.0867 -0.204,0.13 -0.35,0.13 z m 3.57,-0.05 c -0.107,0.0867 -0.227,0.1233 -0.36,0.11 -0.127,-0.0067 -0.234,-0.0633 -0.32,-0.17 l -2.03,-2.51 0.7,-0.66 2.08,2.56 c 0.086,0.1067 0.123,0.2233 0.11,0.35 -0.007,0.12 -0.067,0.2267 -0.18,0.32 z m 2.243,0.05 c -0.147,0 -0.27,-0.0467 -0.37,-0.14 -0.093,-0.1 -0.14,-0.2233 -0.14,-0.37 v -4.45 c 0,-0.1533 0.047,-0.2767 0.14,-0.37 0.1,-0.0933 0.223,-0.14 0.37,-0.14 0.153,0 0.277,0.0467 0.37,0.14 0.093,0.0933 0.14,0.2167 0.14,0.37 v 4.45 c 0,0.1467 -0.047,0.27 -0.14,0.37 -0.093,0.0933 -0.217,0.14 -0.37,0.14 z m 0,-6.36 c -0.18,0 -0.337,-0.0633 -0.47,-0.19 -0.127,-0.1333 -0.19,-0.29 -0.19,-0.47 0,-0.18 0.063,-0.3333 0.19,-0.46 0.133,-0.1333 0.29,-0.2 0.47,-0.2 0.18,0 0.333,0.0667 0.46,0.2 0.133,0.1267 0.2,0.28 0.2,0.46 0,0.18 -0.067,0.3367 -0.2,0.47 -0.127,0.1267 -0.28,0.19 -0.46,0.19 z m 2.317,8.09 c -0.08,0 -0.143,-0.0267 -0.19,-0.08 -0.04,-0.0533 -0.06,-0.1133 -0.06,-0.18 0,-0.1333 0.037,-0.25 0.11,-0.35 0.08,-0.0933 0.157,-0.1967 0.23,-0.31 0.08,-0.1133 0.12,-0.25 0.12,-0.41 0,-0.1133 -0.026,-0.2067 -0.08,-0.28 -0.053,-0.0733 -0.113,-0.14 -0.18,-0.2 -0.066,-0.0667 -0.126,-0.14 -0.18,-0.22 -0.053,-0.08 -0.08,-0.18 -0.08,-0.3 0,-0.18 0.06,-0.33 0.18,-0.45 0.12,-0.12 0.284,-0.18 0.49,-0.18 0.254,0 0.444,0.0867 0.57,0.26 0.134,0.1733 0.204,0.4067 0.21,0.7 0,0.2133 -0.036,0.4367 -0.11,0.67 -0.066,0.2333 -0.16,0.45 -0.28,0.65 -0.113,0.2 -0.236,0.3633 -0.37,0.49 -0.133,0.1267 -0.26,0.19 -0.38,0.19 z m 7.951,-1.69 c -0.54,0 -1.016,-0.1167 -1.43,-0.35 -0.413,-0.24 -0.74,-0.5667 -0.98,-0.98 -0.233,-0.42 -0.35,-0.9 -0.35,-1.44 0,-0.5467 0.117,-1.0267 0.35,-1.44 0.24,-0.42 0.567,-0.7467 0.98,-0.98 0.414,-0.24 0.89,-0.36 1.43,-0.36 0.534,0 1.007,0.12 1.42,0.36 0.414,0.2333 0.737,0.56 0.97,0.98 0.24,0.4133 0.36,0.8933 0.36,1.44 0,0.54 -0.116,1.02 -0.35,1.44 -0.233,0.4133 -0.556,0.74 -0.97,0.98 -0.413,0.2333 -0.89,0.35 -1.43,0.35 z m 0,-0.9 c 0.347,0 0.654,-0.08 0.92,-0.24 0.267,-0.16 0.474,-0.38 0.62,-0.66 0.154,-0.28 0.23,-0.6033 0.23,-0.97 0,-0.3667 -0.076,-0.69 -0.23,-0.97 -0.146,-0.2867 -0.353,-0.51 -0.62,-0.67 -0.266,-0.16 -0.573,-0.24 -0.92,-0.24 -0.346,0 -0.653,0.08 -0.92,0.24 -0.266,0.16 -0.476,0.3833 -0.63,0.67 -0.153,0.28 -0.23,0.6033 -0.23,0.97 0,0.3667 0.077,0.69 0.23,0.97 0.154,0.28 0.364,0.5 0.63,0.66 0.267,0.16 0.574,0.24 0.92,0.24 z m 6.258,0.9 c -0.466,0 -0.9,-0.07 -1.3,-0.21 -0.393,-0.1467 -0.7,-0.33 -0.92,-0.55 -0.1,-0.1067 -0.143,-0.2267 -0.13,-0.36 0.02,-0.14 0.087,-0.2533 0.2,-0.34 0.134,-0.1067 0.264,-0.15 0.39,-0.13 0.134,0.0133 0.247,0.07 0.34,0.17 0.114,0.1267 0.294,0.2467 0.54,0.36 0.254,0.1067 0.534,0.16 0.84,0.16 0.387,0 0.68,-0.0633 0.88,-0.19 0.207,-0.1267 0.314,-0.29 0.32,-0.49 0.007,-0.2 -0.09,-0.3733 -0.29,-0.52 -0.193,-0.1467 -0.55,-0.2667 -1.07,-0.36 -0.673,-0.1333 -1.163,-0.3333 -1.47,-0.6 -0.3,-0.2667 -0.45,-0.5933 -0.45,-0.98 0,-0.34 0.1,-0.62 0.3,-0.84 0.2,-0.2267 0.457,-0.3933 0.77,-0.5 0.314,-0.1133 0.64,-0.17 0.98,-0.17 0.44,0 0.83,0.07 1.17,0.21 0.34,0.14 0.61,0.3333 0.81,0.58 0.094,0.1067 0.137,0.22 0.13,0.34 -0.006,0.1133 -0.063,0.21 -0.17,0.29 -0.106,0.0733 -0.233,0.0967 -0.38,0.07 -0.146,-0.0267 -0.27,-0.0867 -0.37,-0.18 -0.166,-0.16 -0.346,-0.27 -0.54,-0.33 -0.193,-0.06 -0.416,-0.09 -0.67,-0.09 -0.293,0 -0.543,0.05 -0.75,0.15 -0.2,0.1 -0.3,0.2467 -0.3,0.44 0,0.12 0.03,0.23 0.09,0.33 0.067,0.0933 0.194,0.18 0.38,0.26 0.187,0.0733 0.46,0.1467 0.82,0.22 0.5,0.1 0.894,0.2267 1.18,0.38 0.294,0.1533 0.504,0.3333 0.63,0.54 0.127,0.2 0.19,0.4333 0.19,0.7 0,0.3067 -0.083,0.5833 -0.25,0.83 -0.16,0.2467 -0.4,0.4433 -0.72,0.59 -0.313,0.1467 -0.706,0.22 -1.18,0.22 z m 5.74,0.01 c -0.46,0 -0.873,-0.0967 -1.24,-0.29 -0.36,-0.2 -0.647,-0.49 -0.86,-0.87 -0.207,-0.38 -0.31,-0.8467 -0.31,-1.4 v -2.46 c 0,-0.1467 0.047,-0.2667 0.14,-0.36 0.1,-0.1 0.223,-0.15 0.37,-0.15 0.147,0 0.267,0.05 0.36,0.15 0.1,0.0933 0.15,0.2133 0.15,0.36 v 2.46 c 0,0.3733 0.07,0.6833 0.21,0.93 0.14,0.24 0.33,0.42 0.57,0.54 0.24,0.1133 0.51,0.17 0.81,0.17 0.287,0 0.54,-0.0567 0.76,-0.17 0.227,-0.1133 0.407,-0.2667 0.54,-0.46 0.133,-0.1933 0.2,-0.41 0.2,-0.65 h 0.63 c 0,0.4133 -0.103,0.7867 -0.31,1.12 -0.2,0.3333 -0.477,0.5967 -0.83,0.79 -0.347,0.1933 -0.743,0.29 -1.19,0.29 z m 2.21,-0.05 c -0.147,0 -0.27,-0.0467 -0.37,-0.14 -0.093,-0.1 -0.14,-0.2233 -0.14,-0.37 v -4.46 c 0,-0.1533 0.047,-0.2767 0.14,-0.37 0.1,-0.0933 0.223,-0.14 0.37,-0.14 0.153,0 0.277,0.0467 0.37,0.14 0.093,0.0933 0.14,0.2167 0.14,0.37 v 4.46 c 0,0.1467 -0.047,0.27 -0.14,0.37 -0.093,0.0933 -0.217,0.14 -0.37,0.14 z m 2.596,-1.85 c -0.146,0 -0.27,-0.05 -0.37,-0.15 -0.093,-0.1067 -0.14,-0.2267 -0.14,-0.36 v -4.93 c 0,-0.1467 0.047,-0.27 0.14,-0.37 0.1,-0.1 0.224,-0.15 0.37,-0.15 0.147,0 0.267,0.05 0.36,0.15 0.1,0.1 0.15,0.2233 0.15,0.37 v 4.93 c 0,0.14 -0.053,0.26 -0.16,0.36 -0.1,0.1 -0.216,0.15 -0.35,0.15 z m 0,1.85 c -0.186,0 -0.35,-0.0667 -0.49,-0.2 -0.133,-0.1333 -0.2,-0.2967 -0.2,-0.49 0,-0.1933 0.067,-0.3567 0.2,-0.49 0.14,-0.14 0.304,-0.21 0.49,-0.21 0.194,0 0.357,0.07 0.49,0.21 0.134,0.1333 0.2,0.2967 0.2,0.49 0,0.1933 -0.07,0.3567 -0.21,0.49 -0.133,0.1333 -0.293,0.2 -0.48,0.2 z m 4.871,0.04 c -0.5,0 -0.943,-0.1167 -1.33,-0.35 -0.38,-0.24 -0.68,-0.5667 -0.9,-0.98 -0.22,-0.42 -0.33,-0.9 -0.33,-1.44 0,-0.5467 0.117,-1.0267 0.35,-1.44 0.24,-0.42 0.567,-0.7467 0.98,-0.98 0.414,-0.24 0.89,-0.36 1.43,-0.36 0.534,0 1.007,0.12 1.42,0.36 0.414,0.2333 0.737,0.56 0.97,0.98 0.24,0.4133 0.36,0.8933 0.36,1.44 h -0.59 c 0,0.54 -0.103,1.02 -0.31,1.44 -0.2,0.4133 -0.476,0.74 -0.83,0.98 -0.353,0.2333 -0.76,0.35 -1.22,0.35 z m 0.18,2.23 c -0.473,0 -0.916,-0.0933 -1.33,-0.28 -0.413,-0.1867 -0.763,-0.46 -1.05,-0.82 -0.086,-0.1133 -0.12,-0.23 -0.1,-0.35 0.027,-0.12 0.094,-0.2167 0.2,-0.29 0.12,-0.08 0.244,-0.1067 0.37,-0.08 0.134,0.0267 0.24,0.0933 0.32,0.2 0.18,0.2267 0.407,0.4033 0.68,0.53 0.274,0.1267 0.584,0.19 0.93,0.19 0.32,0 0.614,-0.0767 0.88,-0.23 0.274,-0.1533 0.49,-0.38 0.65,-0.68 0.16,-0.3 0.24,-0.6667 0.24,-1.1 v -1.42 l 0.33,-0.88 0.65,0.21 v 2.16 c 0,0.5267 -0.116,1.0033 -0.35,1.43 -0.233,0.4333 -0.56,0.7767 -0.98,1.03 -0.413,0.2533 -0.893,0.38 -1.44,0.38 z m 0.02,-3.13 c 0.347,0 0.654,-0.08 0.92,-0.24 0.267,-0.16 0.474,-0.38 0.62,-0.66 0.154,-0.28 0.23,-0.6033 0.23,-0.97 0,-0.3667 -0.076,-0.69 -0.23,-0.97 -0.146,-0.2867 -0.353,-0.51 -0.62,-0.67 -0.266,-0.16 -0.573,-0.24 -0.92,-0.24 -0.346,0 -0.653,0.08 -0.92,0.24 -0.266,0.16 -0.476,0.3833 -0.63,0.67 -0.153,0.28 -0.23,0.6033 -0.23,0.97 0,0.3667 0.077,0.69 0.23,0.97 0.154,0.28 0.364,0.5 0.63,0.66 0.267,0.16 0.574,0.24 0.92,0.24 z m 6.548,0.9 c -0.486,0 -0.923,-0.12 -1.31,-0.36 -0.386,-0.2467 -0.693,-0.5767 -0.92,-0.99 -0.22,-0.42 -0.33,-0.8933 -0.33,-1.42 0,-0.5267 0.12,-1 0.36,-1.42 0.247,-0.42 0.577,-0.75 0.99,-0.99 0.42,-0.2467 0.89,-0.37 1.41,-0.37 0.52,0 0.987,0.1233 1.4,0.37 0.414,0.24 0.74,0.57 0.98,0.99 0.247,0.42 0.37,0.8933 0.37,1.42 h -0.39 c 0,0.5267 -0.113,1 -0.34,1.42 -0.22,0.4133 -0.523,0.7433 -0.91,0.99 -0.386,0.24 -0.823,0.36 -1.31,0.36 z m 0.2,-0.9 c 0.34,0 0.644,-0.08 0.91,-0.24 0.267,-0.1667 0.477,-0.39 0.63,-0.67 0.154,-0.2867 0.23,-0.6067 0.23,-0.96 0,-0.36 -0.076,-0.68 -0.23,-0.96 -0.153,-0.2867 -0.363,-0.51 -0.63,-0.67 -0.266,-0.1667 -0.57,-0.25 -0.91,-0.25 -0.333,0 -0.636,0.0833 -0.91,0.25 -0.266,0.16 -0.48,0.3833 -0.64,0.67 -0.153,0.28 -0.23,0.6 -0.23,0.96 0,0.3533 0.077,0.6733 0.23,0.96 0.16,0.28 0.374,0.5033 0.64,0.67 0.274,0.16 0.577,0.24 0.91,0.24 z m 2.24,0.87 c -0.146,0 -0.27,-0.0467 -0.37,-0.14 -0.093,-0.1 -0.14,-0.2233 -0.14,-0.37 v -1.53 l 0.19,-1.06 0.83,0.36 v 2.23 c 0,0.1467 -0.05,0.27 -0.15,0.37 -0.093,0.0933 -0.213,0.14 -0.36,0.14 z M 287.831,23 c -0.333,0 -0.633,-0.0833 -0.9,-0.25 -0.266,-0.1733 -0.476,-0.4067 -0.63,-0.7 -0.153,-0.2933 -0.23,-0.6233 -0.23,-0.99 v -4.77 c 0,-0.1467 0.047,-0.2667 0.14,-0.36 0.094,-0.0933 0.214,-0.14 0.36,-0.14 0.147,0 0.267,0.0467 0.36,0.14 0.094,0.0933 0.14,0.2133 0.14,0.36 v 4.77 c 0,0.2667 0.074,0.49 0.22,0.67 0.147,0.18 0.327,0.27 0.54,0.27 h 0.34 c 0.12,0 0.22,0.0467 0.3,0.14 0.087,0.0933 0.13,0.2133 0.13,0.36 0,0.1467 -0.056,0.2667 -0.17,0.36 -0.106,0.0933 -0.246,0.14 -0.42,0.14 z m -2.22,-4.41 c -0.14,0 -0.253,-0.04 -0.34,-0.12 -0.086,-0.08 -0.13,-0.18 -0.13,-0.3 0,-0.1333 0.044,-0.24 0.13,-0.32 0.087,-0.08 0.2,-0.12 0.34,-0.12 h 2.31 c 0.14,0 0.254,0.04 0.34,0.12 0.087,0.08 0.13,0.1867 0.13,0.32 0,0.12 -0.043,0.22 -0.13,0.3 -0.086,0.08 -0.2,0.12 -0.34,0.12 z m 6.524,4.45 c -0.487,0 -0.923,-0.12 -1.31,-0.36 -0.387,-0.2467 -0.693,-0.5767 -0.92,-0.99 -0.22,-0.42 -0.33,-0.8933 -0.33,-1.42 0,-0.5267 0.12,-1 0.36,-1.42 0.247,-0.42 0.577,-0.75 0.99,-0.99 0.42,-0.2467 0.89,-0.37 1.41,-0.37 0.52,0 0.987,0.1233 1.4,0.37 0.413,0.24 0.74,0.57 0.98,0.99 0.247,0.42 0.37,0.8933 0.37,1.42 h -0.39 c 0,0.5267 -0.113,1 -0.34,1.42 -0.22,0.4133 -0.523,0.7433 -0.91,0.99 -0.387,0.24 -0.823,0.36 -1.31,0.36 z m 0.2,-0.9 c 0.34,0 0.643,-0.08 0.91,-0.24 0.267,-0.1667 0.477,-0.39 0.63,-0.67 0.153,-0.2867 0.23,-0.6067 0.23,-0.96 0,-0.36 -0.077,-0.68 -0.23,-0.96 -0.153,-0.2867 -0.363,-0.51 -0.63,-0.67 -0.267,-0.1667 -0.57,-0.25 -0.91,-0.25 -0.333,0 -0.637,0.0833 -0.91,0.25 -0.267,0.16 -0.48,0.3833 -0.64,0.67 -0.153,0.28 -0.23,0.6 -0.23,0.96 0,0.3533 0.077,0.6733 0.23,0.96 0.16,0.28 0.373,0.5033 0.64,0.67 0.273,0.16 0.577,0.24 0.91,0.24 z m 2.24,0.87 c -0.147,0 -0.27,-0.0467 -0.37,-0.14 -0.093,-0.1 -0.14,-0.2233 -0.14,-0.37 v -1.53 l 0.19,-1.06 0.83,0.36 v 2.23 c 0,0.1467 -0.05,0.27 -0.15,0.37 -0.093,0.0933 -0.213,0.14 -0.36,0.14 z m 2.518,-3.43 c 0,-0.4 0.097,-0.7567 0.29,-1.07 0.2,-0.32 0.467,-0.5733 0.8,-0.76 0.333,-0.1867 0.7,-0.28 1.1,-0.28 0.4,0 0.697,0.0667 0.89,0.2 0.2,0.1267 0.277,0.28 0.23,0.46 -0.02,0.0933 -0.06,0.1667 -0.12,0.22 -0.053,0.0467 -0.117,0.0767 -0.19,0.09 -0.073,0.0133 -0.153,0.01 -0.24,-0.01 -0.427,-0.0867 -0.81,-0.0933 -1.15,-0.02 -0.34,0.0733 -0.61,0.21 -0.81,0.41 -0.193,0.2 -0.29,0.4533 -0.29,0.76 z m 0.01,3.42 c -0.16,0 -0.283,-0.04 -0.37,-0.12 -0.087,-0.0867 -0.13,-0.2133 -0.13,-0.38 v -4.47 c 0,-0.16 0.043,-0.2833 0.13,-0.37 0.087,-0.0867 0.21,-0.13 0.37,-0.13 0.167,0 0.29,0.0433 0.37,0.13 0.087,0.08 0.13,0.2033 0.13,0.37 v 4.47 c 0,0.16 -0.043,0.2833 -0.13,0.37 -0.08,0.0867 -0.203,0.13 -0.37,0.13 z m 4.973,0 c -0.146,0 -0.27,-0.0467 -0.37,-0.14 -0.093,-0.1 -0.14,-0.2233 -0.14,-0.37 v -4.45 c 0,-0.1533 0.047,-0.2767 0.14,-0.37 0.1,-0.0933 0.224,-0.14 0.37,-0.14 0.154,0 0.277,0.0467 0.37,0.14 0.094,0.0933 0.14,0.2167 0.14,0.37 v 4.45 c 0,0.1467 -0.046,0.27 -0.14,0.37 -0.093,0.0933 -0.216,0.14 -0.37,0.14 z m 0,-6.36 c -0.18,0 -0.336,-0.0633 -0.47,-0.19 -0.126,-0.1333 -0.19,-0.29 -0.19,-0.47 0,-0.18 0.064,-0.3333 0.19,-0.46 0.134,-0.1333 0.29,-0.2 0.47,-0.2 0.18,0 0.334,0.0667 0.46,0.2 0.134,0.1267 0.2,0.28 0.2,0.46 0,0.18 -0.066,0.3367 -0.2,0.47 -0.126,0.1267 -0.28,0.19 -0.46,0.19 z"
       fill="#ffffff"
       id="path292" /></g></svg>
