<svg width="300" height="300" viewBox="0 0 300 300" fill="none" xmlns="http://www.w3.org/2000/svg">
<path d="M150 0C120.333 0 91.3319 8.79734 66.6645 25.2796C41.9972 41.7618 22.7713 65.1886 11.4181 92.5975C0.0649939 120.006 -2.90551 150.166 2.88227 179.264C8.67006 208.361 22.9562 235.088 43.9341 256.066C64.9119 277.044 91.6394 291.33 120.737 297.118C149.834 302.906 179.994 299.935 207.403 288.582C234.811 277.229 258.238 258.003 274.72 233.336C291.203 208.668 300 179.667 300 150C300 130.302 296.12 110.796 288.582 92.5975C281.044 74.3987 269.995 57.8628 256.066 43.934C242.137 30.0052 225.601 18.9563 207.403 11.4181C189.204 3.87987 169.698 0 150 0Z" fill="white"/>
<path d="M35.8501 113.81C38.3722 113.394 40.9239 113.183 43.4801 113.18C46.0759 113.187 48.6672 113.398 51.2301 113.81V143.31H76.4401V113.81C78.9656 113.394 81.5206 113.183 84.0801 113.18C86.6693 113.186 89.254 113.397 91.8101 113.81V189C89.287 189.407 86.7358 189.614 84.1801 189.62C81.5876 189.622 78.9992 189.415 76.4401 189V156.49H51.2301V189C48.7036 189.406 46.1491 189.613 43.5901 189.62C40.9976 189.623 38.4091 189.415 35.8501 189V113.81Z" fill="#293430"/>
<path d="M137.12 190.28C132.08 190.405 127.075 189.404 122.47 187.35C118.486 185.503 115.005 182.725 112.32 179.25C109.571 175.591 107.563 171.429 106.41 167C105.077 161.966 104.424 156.777 104.47 151.57C104.426 146.317 105.079 141.082 106.41 136C107.556 131.522 109.563 127.31 112.32 123.6C114.996 120.102 118.478 117.302 122.47 115.44C127.075 113.386 132.08 112.385 137.12 112.51C142.157 112.386 147.159 113.387 151.76 115.44C155.753 117.299 159.236 120.099 161.91 123.6C164.667 127.31 166.674 131.522 167.82 136C169.149 141.072 169.801 146.297 169.76 151.54C169.808 156.757 169.156 161.957 167.82 167C166.666 171.426 164.658 175.584 161.91 179.24C159.228 182.717 155.746 185.496 151.76 187.34C147.16 189.397 142.158 190.401 137.12 190.28ZM137.12 177.52C147.92 177.52 153.323 168.873 153.33 151.58C153.33 142.913 152.023 136.427 149.41 132.12C146.797 127.813 142.733 125.65 137.22 125.63C126.273 125.63 120.8 134.297 120.8 151.63C120.8 168.963 126.24 177.593 137.12 177.52Z" fill="#293430"/>
<path d="M175 113.81C177.835 113.366 180.701 113.155 183.57 113.18C184.83 113.18 186.1 113.18 187.39 113.29C188.676 113.352 189.954 113.526 191.21 113.81L202 170.4L215 113.81C216.4 113.6 217.69 113.44 218.87 113.34C220.05 113.24 221.28 113.18 222.53 113.18C224.81 113.197 227.085 113.408 229.33 113.81L242.83 171.87L253.6 113.81C255.808 113.386 258.052 113.175 260.3 113.18C261.663 113.179 263.025 113.249 264.38 113.39L268.25 113.81L250.1 189C247.508 189.423 244.886 189.631 242.26 189.62C239.353 189.606 236.45 189.399 233.57 189L221.57 138.89L208.57 189C206.89 189.14 205.41 189.27 204.12 189.42C202.711 189.562 201.296 189.629 199.88 189.62C197.534 189.607 195.192 189.4 192.88 189L175 113.81Z" fill="#293430"/>
</svg>
